<svg xmlns="http://www.w3.org/2000/svg" xmlns:xlink="http://www.w3.org/1999/xlink" version="1.1" x="0px" y="0px" width="708px" height="850px" viewBox="0 0 708 850" xml:space="preserve" class="style0"><style>.style0{enable-background:	new 0 0 708 850;}.style1{fill-rule:	evenodd;clip-rule:	evenodd;fill:	#F4F4F4;}</style><g></g><g><path d="M396 259c5.908 2.7 12.1 4.4 17.3 8.9 c9.143 7.9 12.4 17.9 13.1 29.35c0.657 10.569-3.863 19.92-6.547 29.707c-1.394 5.08-3.031 10.094-4.367 15.2 c-1.693 6.5 0.8 10.9 6.7 14.627c5.334 3.4 11.4 4.3 17.2 6.177c5.279 1.7 11.548-3.232 13.705-9.339 c3.994-11.305 5.971-23.283 11.063-34.196c8.042-17.235 21.675-26.159 40.161-24.072c14.336 1.6 26.6 10.4 31.9 26.1 c4.433 13.2 1.2 25.105-4.471 36.836c-4.084 8.443-10.305 15.105-18.479 20.608c3.429 1.2 3.2 4.3 3.7 6.8 c0.872 4.9 1.5 9.8 2.2 14.717c0.137 1 0.2 2.1 1.1 2.662c5.1 3.5 4.7 9.2 5.6 14.2 c1.355 7 2.6 14 3.4 21.019c0.316 2.6 1.2 2.9 3.4 2.577c3.282-0.548 4.6 1 5.2 4.3 c3.594 22.3 8 44.5 10.9 66.952c1.147 8.9 5.4 17 5.2 26.053c-0.029 1.2 0.7 2.1 1.7 2.9 c2.694 2 3.3 3.9 1.1 7.098c-1.792 2.584-0.874 6 1.8 7.873c1.93 1.4 2.5 3.4 1.5 4.6 c-2.723 3.291-1.211 6.516-0.671 9.781c4.503 27.2 9.4 54.4 13.4 81.649c1.328 9.1 3.9 18 4.5 27.3 c0.182 3.1 1.7 4 4.6 3.486c10.445-1.727 20.928-3.239 31.342-5.135c2.721-0.495 5.078-1.078 5.9 2.2 c0.998 3.802-0.967 6.073-4.625 6.729c-6.346 1.137-12.729 2.063-19.093 3.104c-5.874 0.961-11.726 2.081-17.62 2.9 c-2.842 0.388-3.289 1.296-2.791 4.196c4.27 24.9 8.3 49.8 12.4 74.779c1.621 9.9 3.2 19.9 4.7 29.8 c0.55 3.6 1.8 5.6 6.1 4.722c2.695-0.559 5.6 0.2 8.439-0.006c1.754-0.118 3 0.2 3.6 1.9 c0.604 1.8 0.2 3.393-1.434 4.393c-1.806 1.139-3.656 2.518-5.67 2.965c-12.561 2.792-25.095 5.903-38.133 5.3 c-2.306-0.1-5.051 0.311-5.789-2.589c-0.826-3.24 2.082-4.127 4.232-5.27c1.295-0.688 2.673-1.296 4.084-1.685 c7.377-2.031 7.398-2.005 6.174-9.4c-5.594-33.8-11.205-67.596-16.778-101.398c-0.498-3.019-1.151-4.417-5.067-3.603 c-11.486 2.386-23.1 4.211-34.723 5.834c-2.36 0.329-6.089 2.462-7.361-2.297c-1.076-4.021-0.367-5.909 4.381-6.479 c10.499-1.261 20.893-3.369 31.365-4.882c3.686-0.531 4.648-1.679 3.959-5.62c-4.557-26.03-8.801-52.116-13.106-78.191 c-1.804-10.921-3.206-21.919-5.397-32.76c-1.048-5.181-6.553-9.606-2.256-15.571c-4.541-4.267-3.449-9.35-2.89-14.801 c0.44-4.283-1.764-8.784-1.696-13.171c0.127-8.407-3.48-16.031-4.219-24.271c-0.763-8.521-2.826-16.924-4.258-25.389 c-1.433-8.47-2.799-16.949-4.162-25.43c-0.209-1.303 0.033-2.739-0.418-3.931c-1.707-4.506 0.857-5.731 4.508-6.055 c3.791-0.335 4.71-1.543 3.862-5.741c-2.286-11.322-3.745-22.813-5.409-34.256c-0.648-4.461-0.508-9.036-2.129-14.353 c-2.45 6.28-1.731 12.177-2.65 17.766c-3.08 18.73-6.844 37.497-7.793 56.378c-0.654 13.017-2.6 25.82-3.543 38.8 c-0.828 11.349-2.705 22.618-3.918 33.943c-1.266 11.824-3.131 23.568-4.157 35.432c-1.005 11.618-2.95 23.153-4.3 34.7 c-1.354 11.634-2.425 23.3-3.724 34.939c-1.165 10.442-2.478 20.868-3.712 31.303c-1.703 14.415-3.386 28.833-5.092 43.2 c-1.7 14.359-3.543 28.703-5.086 43.079c-1 9.3 1.1 11.6 10.3 13.055c8.281 1.4 16.7 2.3 24.7 5 c13.676 4.6 21.3 14.9 24.2 28.396c3.538 16.208-0.435 31.37-8.942 45.429c-5.334 0-10.666 0-16 0 c2.077-1.899 4.504-3.534 6.174-5.741c9.188-12.144 12.487-25.988 6.779-40.067c-8.016-19.77-26.875-24.259-41.695-11.393 C456.262 808.6 455.2 836.1 473 851c-4.666 0-9.334 0-14 0c-6.621-6.9-10.125-15.588-9.498-24.674 c1.02-14.785 3.813-29.446 5.783-44.169c0.761-5.681-2.768-10.406-8.25-11.343c-5.048-0.863-10.091-1.756-15.145-2.586 c-7.328-1.205-12.624 2.293-14.197 9.655c-1.172 5.487-1.907 11.067-2.953 16.584c-2.202 11.601-3.135 23.625-9.527 34 c-11.779 19.088-30.514 25.281-50.487 13.622c-18.357-10.716-24.279-38.484-16.463-57.276c2.124-5.105 5.583-8.949 9.032-13.133 c6.736-8.17 14.403-13.992 25.157-14.799c9.01-0.677 17.8 0.8 26.6 2.647c8.449 1.8 10.2 0.8 12.791-7.275 c5.25-16.295 7.535-33.293 11.452-49.908c2.823-11.975 4.901-24.134 7.613-36.153c2.932-12.996 5.519-26.071 8.115-39.14 c2.815-14.173 5.602-28.346 8.784-42.447c3.297-14.606 6.05-29.337 8.997-44.021c3.405-16.968 6.797-33.938 10.124-50.921 c1.396-7.127 2.092-14.434 4.02-21.406c3.648-13.197 3.324-27.217 8.564-40.046c-2.231-7.694 2.402-14.414 3.282-21.694 c0.755-6.257 1.265-12.746 3.776-18.817c0.524-1.268 2.598-4.4-0.447-5.629c-6.086-2.456-12.238-4.859-18.549-6.612 c-6.297-1.749-11.207-0.046-13.123 4.073c-3.115 6.7-6.367 13.393-8.744 20.366c-4.307 12.634-9.816 24.785-14.463 37.3 c-4.301 11.568-8.776 23.104-13.064 34.683c-6.684 18.044-13.536 36.029-19.592 54.313c-6.103 18.424-13.139 36.537-19.375 54.9 c-8.049 23.724-15.629 47.606-23.563 71.37c-7.41 22.194-15.233 44.252-22.477 66.499c-6.638 20.386-12.597 40.991-19.125 61.4 C306.549 804 298.7 827.5 291 851c-9.333 0-18.673-0.199-27.997 0.104c-3.444 0.112-4.76-0.681-4.003-4.104 c2.429-1.521 4.469-3.437 5.381-6.213c9.406-28.623 18.938-57.207 28.087-85.913c4.255-13.35 8.339-26.76 12.186-40.249 c3.916-13.734 8.418-27.332 12.432-41.057c3.226-11.033 6.733-21.971 9.609-33.131c2.901-11.254 5.909-22.531 9.167-33.718 c3.129-10.744 4.943-21.891 8.389-32.519c4.53-13.972 7.282-28.379 11.49-42.426c4.249-14.182 7.234-28.737 11.239-42.998 c5.793-20.627 10.915-41.432 16.619-62.085c4.374-15.839 7.984-31.919 12.569-47.716c1.387-4.774 1.8-7.689-4.479-7.711 c-1.668-0.006-3.402-1.001-5.223-1.331c-7.906-1.433-9.354-4.345-6.342-11.84c0.923-2.295 1.457-4.76 2.518-6.981 c0.715-1.496 0.324-2.135-0.955-2.664c-3.352-1.386-6.649-2.933-10.078-4.091c-5.435-1.837-10.01-4.859-13.765-9.15 c-8.308-9.496-11.25-20.653-10.055-33.032c1.374-14.241 7.327-25.996 18.583-35.116c4.994-4.046 11.104-5.35 16.627-8.06 C387.334 259 391.7 259 396 259z M375.434 768.544c-3.793-0.037-10.892 2.019-13.979 4.3 c-17.618 13.154-20.905 37.977-7.145 54.422c7.621 9.1 20.6 11.9 31.3 5.938c11.974-6.689 20.802-24.894 16.595-41.407 C398.531 777.3 389 768.7 375.4 768.544z M347.867 621.784c0.249 0.1 0.5 0.2 0.7 0.2 c0.396-0.694 0.91-1.348 1.169-2.09c9.052-25.936 17.966-51.921 27.158-77.807c4.895-13.783 9.934-27.53 14.702-41.346 c5.427-15.721 10.899-31.435 16.31-47.166c7.033-20.457 14.445-40.784 21.577-61.208c1.842-5.272-0.511-10.618-4.857-11.985 c-6.269-1.971-10.924 0.286-12.72 6.425c-3.966 13.556-8.113 27.062-12.17 40.586c-3.982 13.276-7.812 26.599-11.64 39.9 c-5.96 20.729-11.519 41.575-17.164 62.395c-3.099 11.428-6.059 22.894-9.024 34.357c-3.504 13.547-7.008 27.094-10.387 40.7 C350.168 610.4 349.1 616.1 347.9 621.784z M415.307 301.635c0-23.006-18.016-34.978-35.609-28.045 c-14.464 5.699-25.846 28.159-17.313 46.571c5.588 12.1 19.5 17.5 31.4 12 C408.385 325.4 414.8 313.2 415.3 301.635z M480.836 504.791c-1.154 0.294-1.395 0.812-1.506 1.5 c-1.323 8.287-3.422 16.455-4.858 24.671c-3.546 20.272-7.921 40.367-11.929 60.536c-4.329 21.786-8.654 43.579-13.122 65.3 c-2.544 12.387-5.148 24.812-7.222 37.317c-2.397 14.47-6.145 28.694-7.997 43.27c-0.553 4.3 3.8 10 8.1 10.6 c5.642 0.7 9.233-2.381 9.96-8.163c1.128-8.984 2.682-17.92 3.622-26.921c1.416-13.535 3.242-27.029 4.877-40.528 c1.145-9.441 2.77-18.949 3.781-28.389c2.542-23.71 5.822-47.326 8.346-71.032c1.25-11.741 2.559-23.492 4.024-35.189 C478.271 526.8 479.5 515.9 480.8 504.791z M515.39 360.058c0.394 0.2 0.8 0.3 1.2 0.5 c7.164-8.451 11.461-17.721 10.443-29.507c-1.232-14.285-15.041-24.467-27.768-23.601c-10.525 0.716-17.912 6.006-24.011 14.6 c-11.356 15.913-5.384 38.8 10.9 46.589c3.532 1.7 3.5 0.4 4.218-2.156c3.8-13.157 4.503-26.925 8.093-40.142 c1.451-5.341 4.21-9.063 9.225-10.648c2.989-0.945 6.242-1.06 8.5 2.629c2.498 4.1 3.4 8.2 2.8 12.8 C517.792 340.8 516.6 350.4 515.4 360.058z" class="style1"/><path d="M709 794c-9.903-0.838-16.797-6.803-23.203-13.607 c-0.541-0.575-1.157-1.079-2.44-2.266c-0.301 6.468-0.07 12.226-1.671 17.773c-3.621 12.544-11.512 21.382-23.873 25.2 c-13.195 4.104-25.166 0.724-35.411-8.561c-11.168-10.121-17.999-22.437-18.3-37.746c-0.254-13.013 4.293-24.209 13.848-33.223 c5.747-5.421 12.586-8.966 19.883-11.829c5.673-2.227 7.131-5.386 4.547-10.398c-6.094-11.817-10.173-24.455-14.992-36.768 c-5.789-14.786-11.893-29.433-17.868-44.138c-6.356-15.642-12.353-31.431-18.515-47.152c-2.059-5.252-3.821-10.653-6.294-15.705 c-4.03-8.234-4.431-17.411-7.442-25.945c-6.944-19.674-13.447-39.509-20.155-59.269c-4.501-13.259-8.61-26.66-13.173-39.912 c-5.738-16.67-11.158-33.449-16.689-50.189c-1.725-5.219-0.236-7.994 4.84-10.173c5.353-2.299 8.297-2.425 11.6 3.6 c7.797 14.4 13.6 29.7 20.6 44.385c3.613 7.6 7.2 15.3 9.9 23.079c7.49 21.2 19.7 40 28.3 60.7 c5.024 12.1 11.3 23.9 15.9 36.127c5.677 15 11.7 29.8 17.2 44.922c2.94 8.1 6.6 16 9.3 24.1 c7.011 21.1 16 41.4 23.5 62.236c2.239 6.2 4.3 12.5 6.6 18.688c1.22 3.2 2.8 5 7.1 4.1 c6.618-1.508 12.494-5.327 19.489-5.678c2.458-0.124 4.942-0.362 7.425-0.398c0 3.7 0 7.3 0 11 c-9.985 1.22-16.971 6.133-21.172 15.588c-4.896 11.023-3.917 21.8 0.8 32.17c3.998 8.7 10.5 15.6 20.3 18.2 C709 786.7 709 790.3 709 794z M646.908 810.593c18.604 0.7 26.981-14.053 26.587-28.482 c-0.407-14.895-7.604-26.778-21.243-33.968c-14.429-7.606-30.959-1.231-36.154 12.898c-3.456 9.399-2.809 18.7 1.2 27.5 C623.046 801 632.2 809.8 646.9 810.593z" class="style1"/></g></svg>