<?xml version="1.0" encoding="iso-8859-1"?>
<!-- Generator: Adobe Illustrator 16.0.0, SVG Export Plug-In . SVG Version: 6.00 Build 0)  -->
<svg version="1.2" baseProfile="tiny" xmlns="http://www.w3.org/2000/svg" xmlns:xlink="http://www.w3.org/1999/xlink" x="0px"
	 y="0px" width="1204px" height="177px" viewBox="0 0 1204 177" xml:space="preserve">
<g id="STUDENT_SURGICAL_ASSOCIATION_OF_HONG_KONG_1_">
	<g id="STUDENT_SURGICAL_ASSOCIATION_OF_HONG_KONG">
		<path fill="#FFFFFF" d="M3.216,98.258c3.393,1.976,7.027,2.964,10.904,2.964c4.772,0,7.159-2.565,7.159-7.697
			c0-1.664-0.378-3.012-1.135-4.044c-0.756-1.031-2.133-1.841-4.13-2.431l-6.476-1.924c-4.949-1.473-7.423-4.594-7.423-9.361
			c0-3.658,1.064-6.375,3.194-8.153c2.129-1.777,5.074-2.665,8.833-2.665c1.968,0,3.811,0.251,5.529,0.754
			c1.718,0.503,3.157,1.179,4.317,2.028l-1.101,3.667c-0.984-0.641-2.288-1.213-3.91-1.716c-1.623-0.502-3.264-0.754-4.923-0.754
			c-5.316,0-7.974,2.176-7.974,6.527c0,1.474,0.408,2.657,1.223,3.549c0.815,0.893,2.038,1.573,3.667,2.042l6.19,1.768
			c2.643,0.746,4.647,1.938,6.013,3.576s2.049,3.965,2.049,6.982c0,3.919-1.017,6.87-3.051,8.854
			c-2.034,1.985-4.799,2.978-8.293,2.978c-2.614,0-4.938-0.316-6.972-0.948c-2.034-0.633-3.646-1.383-4.835-2.25L3.216,98.258z"/>
		<path fill="#FFFFFF" d="M41.038,104.603h-3.833V70.121H27.183v-3.979h23.878v3.979H41.038V104.603z"/>
		<path fill="#FFFFFF" d="M79.366,66.142v24.965c0,4.421-1.024,7.87-3.073,10.35c-2.048,2.479-5.166,3.719-9.351,3.719
			s-7.276-1.239-9.273-3.719c-1.998-2.479-2.996-5.946-2.996-10.402V66.142h3.833v24.99c0,3.485,0.697,6.051,2.093,7.697
			c1.395,1.647,3.554,2.471,6.476,2.471c2.849,0,4.974-0.832,6.377-2.496c1.402-1.664,2.104-4.23,2.104-7.697V66.142H79.366z"/>
		<path fill="#FFFFFF" d="M113.53,85.333c0,6.259-1.505,11.035-4.516,14.329s-7.21,4.94-12.6,4.94h-9.67V66.142h9.031
			c2.716,0,5.146,0.377,7.291,1.131c2.144,0.754,4.005,1.898,5.584,3.433c1.578,1.534,2.787,3.537,3.624,6.007
			C113.112,79.183,113.53,82.057,113.53,85.333z M109.455,85.463c0-5.374-1.175-9.284-3.524-11.728
			c-2.35-2.445-5.771-3.667-10.265-3.667h-5.11v30.607h5.749c4.288,0,7.552-1.278,9.792-3.836
			C108.335,94.283,109.455,90.491,109.455,85.463z"/>
		<path fill="#FFFFFF" d="M119.831,104.603V66.142h18.679l-0.154,3.979h-14.714v12.586h13.987v3.927h-13.987v13.991h15.199
			l-0.176,3.979H119.831z"/>
		<path fill="#FFFFFF" d="M170.736,104.603h-4.317l-16.917-30.27l-1.101-1.794c0.117,3.641,0.176,6.891,0.176,9.751v22.312h-3.568
			V66.142h4.251l16.961,30.27l1.124,1.794c-0.103-5.529-0.154-8.729-0.154-9.595V66.142h3.546V104.603z"/>
		<path fill="#FFFFFF" d="M188.578,104.603h-3.833V70.121h-10.022v-3.979h23.878v3.979h-10.023V104.603z"/>
		<path fill="#FFFFFF" d="M213.249,98.258c3.393,1.976,7.027,2.964,10.904,2.964c4.772,0,7.159-2.565,7.159-7.697
			c0-1.664-0.378-3.012-1.135-4.044c-0.756-1.031-2.133-1.841-4.13-2.431l-6.476-1.924c-4.949-1.473-7.423-4.594-7.423-9.361
			c0-3.658,1.064-6.375,3.194-8.153c2.129-1.777,5.074-2.665,8.833-2.665c1.968,0,3.811,0.251,5.529,0.754
			c1.718,0.503,3.157,1.179,4.317,2.028l-1.101,3.667c-0.984-0.641-2.288-1.213-3.91-1.716c-1.623-0.502-3.264-0.754-4.923-0.754
			c-5.316,0-7.974,2.176-7.974,6.527c0,1.474,0.408,2.657,1.223,3.549c0.815,0.893,2.038,1.573,3.667,2.042l6.19,1.768
			c2.643,0.746,4.647,1.938,6.013,3.576s2.049,3.965,2.049,6.982c0,3.919-1.017,6.87-3.051,8.854
			c-2.034,1.985-4.799,2.978-8.293,2.978c-2.614,0-4.938-0.316-6.972-0.948c-2.034-0.633-3.646-1.383-4.835-2.25L213.249,98.258z"/>
		<path fill="#FFFFFF" d="M265.19,66.142v24.965c0,4.421-1.024,7.87-3.073,10.35c-2.048,2.479-5.166,3.719-9.351,3.719
			s-7.276-1.239-9.273-3.719c-1.998-2.479-2.996-5.946-2.996-10.402V66.142h3.833v24.99c0,3.485,0.697,6.051,2.093,7.697
			c1.395,1.647,3.554,2.471,6.476,2.471c2.849,0,4.974-0.832,6.377-2.496c1.402-1.664,2.104-4.23,2.104-7.697V66.142H265.19z"/>
		<path fill="#FFFFFF" d="M296.755,104.603h-4.406l-4.493-12.066c-1.219-3.241-1.998-5.192-2.335-5.851
			c-1.072,0.087-2.343,0.13-3.811,0.13l-5.837-0.208v17.995h-3.898V65.7h10.419c1.204,0,2.269,0.035,3.194,0.104
			c0.925,0.069,1.847,0.195,2.765,0.377c0.917,0.182,1.714,0.434,2.39,0.754s1.307,0.737,1.895,1.248
			c0.587,0.512,1.061,1.123,1.421,1.833c0.359,0.711,0.642,1.556,0.848,2.535c0.205,0.98,0.308,2.085,0.308,3.316
			c0,2.427-0.54,4.516-1.619,6.267c-1.079,1.751-2.61,2.964-4.593,3.641c0,0.035,0.147,0.347,0.441,0.936
			c0.293,0.589,0.642,1.313,1.046,2.171s0.716,1.573,0.937,2.146L296.755,104.603z M275.873,69.73v13.002
			c0.602,0,1.847,0.017,3.734,0.052c1.887,0.035,3.344,0.052,4.373,0.052c2.805,0,4.758-0.55,5.859-1.651
			c1.101-1.101,1.652-2.848,1.652-5.24c0-2.097-0.529-3.658-1.586-4.681c-1.057-1.022-2.827-1.534-5.309-1.534H275.873z"/>
		<path fill="#FFFFFF" d="M316.271,105.175c-2.482,0-4.71-0.49-6.686-1.47c-1.975-0.979-3.605-2.349-4.89-4.108
			s-2.269-3.844-2.952-6.254c-0.683-2.41-1.024-5.054-1.024-7.932c0-3.883,0.624-7.316,1.872-10.298
			c1.248-2.981,3.106-5.331,5.573-7.047c2.467-1.716,5.389-2.574,8.767-2.574c3.745,0,7.034,1.006,9.869,3.017l-1.454,3.719
			c-2.731-1.855-5.521-2.783-8.37-2.783c-1.982,0-3.756,0.403-5.32,1.209s-2.842,1.924-3.833,3.354s-1.748,3.112-2.269,5.045
			c-0.521,1.933-0.782,4.052-0.782,6.358c0,4.889,1.032,8.751,3.095,11.585c2.063,2.835,5.106,4.252,9.13,4.252
			c2.291,0,4.618-0.546,6.982-1.639V88.636h-7.688l0.132-3.927h11.124v17.579c-1.851,1.04-3.639,1.781-5.364,2.224
			C320.46,104.953,318.489,105.175,316.271,105.175z"/>
		<path fill="#FFFFFF" d="M338.233,104.603h-3.811V66.142h3.811V104.603z"/>
		<path fill="#FFFFFF" d="M360.437,69.444c-2.452,0-4.563,0.702-6.333,2.106c-1.77,1.404-3.088,3.294-3.954,5.669
			c-0.867,2.375-1.3,5.106-1.3,8.191c0,2.306,0.235,4.408,0.705,6.306c0.47,1.898,1.175,3.563,2.115,4.993
			c0.939,1.431,2.162,2.54,3.667,3.329c1.505,0.789,3.234,1.183,5.188,1.183c2.511,0,5.11-0.771,7.798-2.314l0.639,3.823
			c-2.188,1.63-5.147,2.444-8.877,2.444c-2.453,0-4.652-0.481-6.597-1.443c-1.946-0.962-3.554-2.323-4.824-4.083
			c-1.271-1.759-2.236-3.857-2.896-6.293c-0.661-2.436-0.991-5.145-0.991-8.126c0-2.877,0.359-5.53,1.079-7.957
			c0.719-2.427,1.736-4.512,3.051-6.254c1.314-1.742,2.955-3.099,4.923-4.07c1.968-0.971,4.156-1.456,6.564-1.456
			c3.657,0,6.741,0.954,9.251,2.86l-1.498,3.667C365.738,70.303,363.168,69.444,360.437,69.444z"/>
		<path fill="#FFFFFF" d="M395.417,104.603l-3.811-12.196h-12.997l-3.943,12.196h-3.877l12.512-38.539h3.899l12.137,38.539H395.417z
			 M390.372,88.636c-3.099-10.627-4.81-16.6-5.132-17.917l-5.353,17.917H390.372z"/>
		<path fill="#FFFFFF" d="M403.237,104.603V66.142h3.833v34.456h14.34l-0.132,4.005H403.237z"/>
		<path fill="#FFFFFF" d="M457.843,104.603l-3.811-12.196h-12.997l-3.943,12.196h-3.877l12.512-38.539h3.899l12.137,38.539H457.843z
			 M452.798,88.636c-3.099-10.627-4.81-16.6-5.132-17.917l-5.353,17.917H452.798z"/>
		<path fill="#FFFFFF" d="M465.045,98.258c3.393,1.976,7.027,2.964,10.904,2.964c4.772,0,7.159-2.565,7.159-7.697
			c0-1.664-0.378-3.012-1.135-4.044c-0.756-1.031-2.133-1.841-4.13-2.431l-6.476-1.924c-4.949-1.473-7.423-4.594-7.423-9.361
			c0-3.658,1.064-6.375,3.194-8.153c2.129-1.777,5.074-2.665,8.833-2.665c1.968,0,3.811,0.251,5.529,0.754
			c1.718,0.503,3.157,1.179,4.317,2.028l-1.101,3.667c-0.984-0.641-2.288-1.213-3.91-1.716c-1.623-0.502-3.264-0.754-4.923-0.754
			c-5.316,0-7.974,2.176-7.974,6.527c0,1.474,0.408,2.657,1.223,3.549c0.815,0.893,2.038,1.573,3.667,2.042l6.19,1.768
			c2.643,0.746,4.647,1.938,6.013,3.576s2.049,3.965,2.049,6.982c0,3.919-1.017,6.87-3.051,8.854
			c-2.034,1.985-4.799,2.978-8.293,2.978c-2.614,0-4.938-0.316-6.972-0.948c-2.034-0.633-3.646-1.383-4.835-2.25L465.045,98.258z"/>
		<path fill="#FFFFFF" d="M492.073,98.258c3.393,1.976,7.027,2.964,10.904,2.964c4.772,0,7.159-2.565,7.159-7.697
			c0-1.664-0.378-3.012-1.135-4.044c-0.756-1.031-2.133-1.841-4.13-2.431l-6.476-1.924c-4.949-1.473-7.423-4.594-7.423-9.361
			c0-3.658,1.064-6.375,3.194-8.153c2.129-1.777,5.074-2.665,8.833-2.665c1.968,0,3.811,0.251,5.529,0.754
			c1.718,0.503,3.157,1.179,4.317,2.028l-1.101,3.667c-0.984-0.641-2.288-1.213-3.91-1.716c-1.623-0.502-3.264-0.754-4.923-0.754
			c-5.316,0-7.974,2.176-7.974,6.527c0,1.474,0.408,2.657,1.223,3.549c0.815,0.893,2.038,1.573,3.667,2.042l6.19,1.768
			c2.643,0.746,4.647,1.938,6.013,3.576s2.049,3.965,2.049,6.982c0,3.919-1.017,6.87-3.051,8.854
			c-2.034,1.985-4.799,2.978-8.293,2.978c-2.614,0-4.938-0.316-6.972-0.948c-2.034-0.633-3.646-1.383-4.835-2.25L492.073,98.258z"/>
		<path fill="#FFFFFF" d="M549.235,85.385c0,2.93-0.341,5.608-1.024,8.036c-0.683,2.427-1.667,4.512-2.952,6.254
			s-2.904,3.095-4.857,4.057s-4.149,1.443-6.586,1.443c-3.29,0-6.105-0.828-8.447-2.483c-2.343-1.655-4.097-3.962-5.265-6.917
			c-1.167-2.956-1.751-6.428-1.751-10.415c0-6.154,1.358-11.009,4.075-14.563c2.717-3.553,6.521-5.331,11.411-5.331
			c4.816,0,8.587,1.79,11.311,5.37C547.873,74.416,549.235,79.266,549.235,85.385z M522.405,85.385c0,4.941,0.962,8.82,2.886,11.637
			s4.765,4.226,8.524,4.226s6.59-1.404,8.492-4.213s2.853-6.691,2.853-11.65c0-5.062-0.958-8.989-2.875-11.78
			c-1.917-2.791-4.732-4.187-8.447-4.187c-3.716,0-6.55,1.396-8.503,4.187C523.382,76.396,522.405,80.323,522.405,85.385z"/>
		<path fill="#FFFFFF" d="M569.831,69.444c-2.452,0-4.563,0.702-6.333,2.106c-1.77,1.404-3.088,3.294-3.954,5.669
			c-0.867,2.375-1.3,5.106-1.3,8.191c0,2.306,0.235,4.408,0.705,6.306c0.47,1.898,1.175,3.563,2.115,4.993
			c0.939,1.431,2.162,2.54,3.667,3.329c1.505,0.789,3.234,1.183,5.188,1.183c2.511,0,5.11-0.771,7.798-2.314l0.639,3.823
			c-2.188,1.63-5.147,2.444-8.877,2.444c-2.453,0-4.652-0.481-6.597-1.443c-1.946-0.962-3.554-2.323-4.824-4.083
			c-1.271-1.759-2.236-3.857-2.896-6.293c-0.661-2.436-0.991-5.145-0.991-8.126c0-2.877,0.359-5.53,1.079-7.957
			c0.719-2.427,1.736-4.512,3.051-6.254c1.314-1.742,2.955-3.099,4.923-4.07c1.968-0.971,4.156-1.456,6.564-1.456
			c3.657,0,6.741,0.954,9.251,2.86l-1.498,3.667C575.132,70.303,572.562,69.444,569.831,69.444z"/>
		<path fill="#FFFFFF" d="M587.937,104.603h-3.811V66.142h3.811V104.603z"/>
		<path fill="#FFFFFF" d="M616.705,104.603l-3.811-12.196h-12.997l-3.943,12.196h-3.877l12.512-38.539h3.898l12.137,38.539H616.705z
			 M611.66,88.636c-3.098-10.627-4.809-16.6-5.131-17.917l-5.354,17.917H611.66z"/>
		<path fill="#FFFFFF" d="M634.702,104.603h-3.833V70.121h-10.022v-3.979h23.878v3.979h-10.022V104.603z"/>
		<path fill="#FFFFFF" d="M652.72,104.603h-3.811V66.142h3.811V104.603z"/>
		<path fill="#FFFFFF" d="M690.145,85.385c0,2.93-0.342,5.608-1.024,8.036c-0.683,2.427-1.667,4.512-2.951,6.254
			c-1.285,1.742-2.904,3.095-4.857,4.057s-4.148,1.443-6.586,1.443c-3.29,0-6.105-0.828-8.448-2.483
			c-2.342-1.655-4.097-3.962-5.264-6.917c-1.168-2.956-1.752-6.428-1.752-10.415c0-6.154,1.358-11.009,4.075-14.563
			c2.717-3.553,6.521-5.331,11.41-5.331c4.816,0,8.587,1.79,11.312,5.37C688.782,74.416,690.145,79.266,690.145,85.385z
			 M663.315,85.385c0,4.941,0.961,8.82,2.885,11.637s4.766,4.226,8.525,4.226c3.759,0,6.59-1.404,8.491-4.213
			s2.853-6.691,2.853-11.65c0-5.062-0.958-8.989-2.874-11.78c-1.917-2.791-4.732-4.187-8.448-4.187c-3.715,0-6.55,1.396-8.502,4.187
			C664.292,76.396,663.315,80.323,663.315,85.385z"/>
		<path fill="#FFFFFF" d="M722.173,104.603h-4.317l-16.917-30.27l-1.102-1.794c0.118,3.641,0.177,6.891,0.177,9.751v22.312h-3.568
			V66.142h4.251l16.961,30.27l1.124,1.794c-0.104-5.529-0.154-8.729-0.154-9.595V66.142h3.546V104.603z"/>
		<path fill="#FFFFFF" d="M770.611,85.385c0,2.93-0.342,5.608-1.024,8.036c-0.683,2.427-1.667,4.512-2.951,6.254
			c-1.285,1.742-2.904,3.095-4.857,4.057s-4.148,1.443-6.586,1.443c-3.29,0-6.105-0.828-8.448-2.483
			c-2.342-1.655-4.097-3.962-5.264-6.917c-1.168-2.956-1.752-6.428-1.752-10.415c0-6.154,1.358-11.009,4.075-14.563
			c2.717-3.553,6.521-5.331,11.41-5.331c4.816,0,8.587,1.79,11.312,5.37C769.249,74.416,770.611,79.266,770.611,85.385z
			 M743.782,85.385c0,4.941,0.961,8.82,2.885,11.637s4.766,4.226,8.525,4.226c3.759,0,6.59-1.404,8.491-4.213
			s2.853-6.691,2.853-11.65c0-5.062-0.958-8.989-2.874-11.78c-1.917-2.791-4.732-4.187-8.448-4.187c-3.715,0-6.55,1.396-8.502,4.187
			C744.759,76.396,743.782,80.323,743.782,85.385z"/>
		<path fill="#FFFFFF" d="M780.722,104.603h-3.811V66.142h18.084l-0.153,3.979h-14.12v13.496h13.459v3.823h-13.459V104.603z"/>
		<path fill="#FFFFFF" d="M836.21,104.603h-3.811V86.607h-17.49v17.995h-3.811V66.142h3.811v16.513h17.49V66.142h3.811V104.603z"/>
		<path fill="#FFFFFF" d="M873.392,85.385c0,2.93-0.342,5.608-1.024,8.036c-0.683,2.427-1.667,4.512-2.951,6.254
			c-1.285,1.742-2.904,3.095-4.857,4.057s-4.148,1.443-6.586,1.443c-3.29,0-6.105-0.828-8.448-2.483
			c-2.342-1.655-4.097-3.962-5.264-6.917c-1.168-2.956-1.752-6.428-1.752-10.415c0-6.154,1.358-11.009,4.075-14.563
			c2.717-3.553,6.521-5.331,11.41-5.331c4.816,0,8.587,1.79,11.312,5.37C872.029,74.416,873.392,79.266,873.392,85.385z
			 M846.563,85.385c0,4.941,0.961,8.82,2.885,11.637s4.766,4.226,8.525,4.226c3.759,0,6.59-1.404,8.491-4.213
			s2.853-6.691,2.853-11.65c0-5.062-0.958-8.989-2.874-11.78c-1.917-2.791-4.732-4.187-8.448-4.187c-3.715,0-6.55,1.396-8.502,4.187
			C847.539,76.396,846.563,80.323,846.563,85.385z"/>
		<path fill="#FFFFFF" d="M905.42,104.603h-4.317l-16.917-30.27l-1.102-1.794c0.118,3.641,0.177,6.891,0.177,9.751v22.312h-3.568
			V66.142h4.251l16.961,30.27l1.124,1.794c-0.104-5.529-0.154-8.729-0.154-9.595V66.142h3.546V104.603z"/>
		<path fill="#FFFFFF" d="M927.294,105.175c-2.482,0-4.711-0.49-6.686-1.47c-1.976-0.979-3.605-2.349-4.891-4.108
			s-2.269-3.844-2.951-6.254c-0.684-2.41-1.024-5.054-1.024-7.932c0-3.883,0.624-7.316,1.872-10.298
			c1.248-2.981,3.106-5.331,5.573-7.047s5.389-2.574,8.767-2.574c3.745,0,7.034,1.006,9.868,3.017l-1.453,3.719
			c-2.731-1.855-5.522-2.783-8.371-2.783c-1.982,0-3.756,0.403-5.319,1.209s-2.842,1.924-3.833,3.354s-1.747,3.112-2.269,5.045
			s-0.782,4.052-0.782,6.358c0,4.889,1.031,8.751,3.095,11.585c2.063,2.835,5.106,4.252,9.131,4.252
			c2.291,0,4.618-0.546,6.982-1.639V88.636h-7.688l0.132-3.927h11.124v17.579c-1.85,1.04-3.638,1.781-5.363,2.224
			C931.482,104.953,929.511,105.175,927.294,105.175z"/>
		<path fill="#FFFFFF" d="M980.446,104.603h-4.67l-12.468-18.359l-2.974,3.095v15.265h-3.833V66.142h3.833v18.879l14.318-18.879
			h4.779l-13.216,17.319L980.446,104.603z"/>
		<path fill="#FFFFFF" d="M1013.398,85.385c0,2.93-0.342,5.608-1.024,8.036c-0.683,2.427-1.667,4.512-2.951,6.254
			c-1.285,1.742-2.904,3.095-4.857,4.057s-4.148,1.443-6.586,1.443c-3.29,0-6.105-0.828-8.448-2.483
			c-2.342-1.655-4.097-3.962-5.264-6.917c-1.168-2.956-1.752-6.428-1.752-10.415c0-6.154,1.358-11.009,4.075-14.563
			c2.717-3.553,6.521-5.331,11.41-5.331c4.816,0,8.587,1.79,11.312,5.37C1012.036,74.416,1013.398,79.266,1013.398,85.385z
			 M986.569,85.385c0,4.941,0.961,8.82,2.885,11.637s4.766,4.226,8.525,4.226c3.759,0,6.59-1.404,8.491-4.213
			s2.853-6.691,2.853-11.65c0-5.062-0.958-8.989-2.874-11.78c-1.917-2.791-4.732-4.187-8.448-4.187c-3.715,0-6.55,1.396-8.502,4.187
			C987.546,76.396,986.569,80.323,986.569,85.385z"/>
		<path fill="#FFFFFF" d="M1045.427,104.603h-4.317l-16.917-30.27l-1.102-1.794c0.118,3.641,0.177,6.891,0.177,9.751v22.312h-3.568
			V66.142h4.251l16.961,30.27l1.124,1.794c-0.104-5.529-0.154-8.729-0.154-9.595V66.142h3.546V104.603z"/>
		<path fill="#FFFFFF" d="M1067.301,105.175c-2.482,0-4.711-0.49-6.686-1.47c-1.976-0.979-3.605-2.349-4.891-4.108
			s-2.269-3.844-2.951-6.254c-0.684-2.41-1.024-5.054-1.024-7.932c0-3.883,0.624-7.316,1.872-10.298
			c1.248-2.981,3.106-5.331,5.573-7.047s5.389-2.574,8.767-2.574c3.745,0,7.034,1.006,9.868,3.017l-1.453,3.719
			c-2.731-1.855-5.522-2.783-8.371-2.783c-1.982,0-3.756,0.403-5.319,1.209s-2.842,1.924-3.833,3.354s-1.747,3.112-2.269,5.045
			s-0.782,4.052-0.782,6.358c0,4.889,1.031,8.751,3.095,11.585c2.063,2.835,5.106,4.252,9.131,4.252
			c2.291,0,4.618-0.546,6.982-1.639V88.636h-7.688l0.132-3.927h11.124v17.579c-1.85,1.04-3.638,1.781-5.363,2.224
			C1071.489,104.953,1069.518,105.175,1067.301,105.175z"/>
	</g>
</g>
<g id="An_affiliated_student_association_with_the_College_of_Surgeons_1_">
	<g id="An_affiliated_student_association_with_the_College_of_Surgeons">
		<rect y="125.841" fill="none" width="1090" height="65.159"/>
		<path fill="#FFFFFF" d="M0.096,150.772l9.228-24.216h1.954l8.894,24.216h-2.096l-3.018-8.219H5.257l-3.145,8.219H0.096z
			 M6.036,141.024h8.291c-2.382-7.009-3.732-11.132-4.05-12.368c-0.127,0.478-0.546,1.747-1.255,3.808
			c-0.709,2.062-1.387,4.004-2.033,5.826L6.036,141.024z"/>
		<path fill="#FFFFFF" d="M22.601,150.772v-17.836h1.715l0.27,2.75c0.625-0.955,1.464-1.706,2.518-2.254
			c1.053-0.548,2.189-0.822,3.406-0.822c2.001,0,3.473,0.564,4.416,1.692c0.942,1.129,1.414,2.93,1.414,5.403v11.066h-1.985v-11.978
			c-0.053-1.584-0.381-2.724-0.985-3.418s-1.594-1.041-2.97-1.041c-1.578,0-2.867,0.406-3.867,1.221
			c-1.001,0.813-1.628,1.866-1.882,3.157c-0.042,0.51-0.063,1.041-0.063,1.595v10.464H22.601z"/>
		<path fill="#FFFFFF" d="M52.904,151.163c-1.642,0-2.954-0.423-3.939-1.27c-0.985-0.846-1.477-2.056-1.477-3.629
			c0-0.933,0.196-1.744,0.588-2.433c0.392-0.689,0.96-1.248,1.707-1.677s1.599-0.762,2.557-1.001
			c0.958-0.238,2.073-0.406,3.343-0.504c1.355-0.087,2.361-0.157,3.018-0.212v-1.985c0-1.367-0.305-2.395-0.914-3.084
			c-0.609-0.688-1.585-1.033-2.93-1.033c-1.842,0-3.563,0.45-5.162,1.351c-0.042-0.108-0.14-0.345-0.293-0.708
			c-0.154-0.363-0.262-0.643-0.326-0.838c0.656-0.434,1.514-0.798,2.573-1.091c1.059-0.293,2.096-0.439,3.113-0.439
			c2.086,0,3.584,0.459,4.495,1.375c0.911,0.917,1.366,2.542,1.366,4.875v11.912h-1.541c-0.053-0.249-0.129-0.743-0.23-1.48
			c-0.101-0.738-0.151-1.118-0.151-1.14C57.334,150.159,55.402,151.163,52.904,151.163z M52.967,149.552
			c1.355,0,2.56-0.409,3.613-1.229c1.054-0.819,1.745-1.955,2.073-3.409v-3.044c-1.524,0.131-2.292,0.195-2.303,0.195
			c-2.583,0.239-4.378,0.673-5.384,1.303c-1.006,0.629-1.509,1.605-1.509,2.929c0,1.085,0.32,1.899,0.961,2.441
			C51.059,149.281,51.908,149.552,52.967,149.552z"/>
		<path fill="#FFFFFF" d="M74.916,150.772v-16.355H68.42v16.355h-1.969v-16.355h-2.859l0.127-1.253l2.732-0.228v-0.668
			c0-2.343,0.399-4.046,1.199-5.109s2.025-1.595,3.677-1.595c0.477,0,1.287,0.081,2.43,0.244l-0.143,1.334
			c-1.017-0.119-1.705-0.179-2.064-0.179c-1.207,0-2.031,0.398-2.47,1.196c-0.439,0.797-0.659,2.199-0.659,4.206v0.57h6.496v-0.668
			c0-2.343,0.399-4.046,1.199-5.109c0.799-1.063,2.025-1.595,3.677-1.595c0.477,0,1.286,0.081,2.43,0.244l-0.143,1.334
			c-1.017-0.119-1.705-0.179-2.065-0.179c-1.207,0-2.03,0.398-2.47,1.196c-0.439,0.797-0.659,2.199-0.659,4.206v0.57h4.241v1.48
			h-4.241v16.355H74.916z"/>
		<path fill="#FFFFFF" d="M84.159,129.291v-2.734h1.969v2.734H84.159z M84.159,150.772v-17.836h1.985v17.836H84.159z"/>
		<path fill="#FFFFFF" d="M95.404,151.146c-1.461,0-2.531-0.339-3.208-1.017s-1.016-1.782-1.016-3.312v-20.814l1.938-0.163v20.863
			c0,1.085,0.193,1.833,0.58,2.246c0.386,0.412,0.971,0.618,1.755,0.618c0.635,0,1.43-0.125,2.382-0.374l0.08,1.562
			C96.875,151.017,96.039,151.146,95.404,151.146z"/>
		<path fill="#FFFFFF" d="M100.454,129.291v-2.734h1.969v2.734H100.454z M100.454,150.772v-17.836h1.985v17.836H100.454z"/>
		<path fill="#FFFFFF" d="M111.969,151.163c-1.642,0-2.954-0.423-3.939-1.27c-0.985-0.846-1.477-2.056-1.477-3.629
			c0-0.933,0.196-1.744,0.588-2.433c0.392-0.689,0.96-1.248,1.707-1.677s1.599-0.762,2.557-1.001
			c0.958-0.238,2.073-0.406,3.343-0.504c1.355-0.087,2.361-0.157,3.018-0.212v-1.985c0-1.367-0.305-2.395-0.914-3.084
			c-0.609-0.688-1.585-1.033-2.93-1.033c-1.842,0-3.563,0.45-5.162,1.351c-0.042-0.108-0.14-0.345-0.293-0.708
			c-0.154-0.363-0.262-0.643-0.326-0.838c0.656-0.434,1.514-0.798,2.573-1.091c1.059-0.293,2.096-0.439,3.113-0.439
			c2.086,0,3.584,0.459,4.495,1.375c0.911,0.917,1.366,2.542,1.366,4.875v11.912h-1.541c-0.053-0.249-0.129-0.743-0.23-1.48
			c-0.101-0.738-0.151-1.118-0.151-1.14C116.399,150.159,114.467,151.163,111.969,151.163z M112.032,149.552
			c1.355,0,2.56-0.409,3.613-1.229c1.054-0.819,1.745-1.955,2.073-3.409v-3.044c-1.524,0.131-2.292,0.195-2.303,0.195
			c-2.583,0.239-4.378,0.673-5.384,1.303c-1.006,0.629-1.509,1.605-1.509,2.929c0,1.085,0.32,1.899,0.961,2.441
			C110.124,149.281,110.973,149.552,112.032,149.552z"/>
		<path fill="#FFFFFF" d="M129.328,151.146c-1.461,0-2.531-0.339-3.208-1.017c-0.678-0.678-1.017-1.782-1.017-3.312v-12.401h-2.462
			l0.143-1.221l2.351-0.228l0.524-4.085l1.382-0.098v4.15h5.083v1.48h-5.083v11.978c0,1.259,0.201,2.103,0.604,2.531
			s1.112,0.643,2.128,0.643c0.656,0,1.472-0.125,2.446-0.374l0.079,1.562C131.016,151.017,130.026,151.146,129.328,151.146z"/>
		<path fill="#FFFFFF" d="M142.208,151.163c-2.404,0-4.312-0.824-5.726-2.474s-2.12-3.884-2.12-6.705
			c0-2.723,0.691-4.952,2.073-6.688c1.382-1.735,3.168-2.631,5.36-2.686c2.043,0,3.685,0.749,4.924,2.246
			c1.239,1.497,1.858,3.505,1.858,6.021c0,0.098-0.002,0.296-0.008,0.594c-0.005,0.299-0.008,0.508-0.008,0.627h-12.118
			c0.021,2.289,0.561,4.104,1.62,5.443c1.059,1.34,2.456,2.01,4.193,2.01c1.133,0,2.117-0.136,2.954-0.406
			c0.836-0.271,1.709-0.657,2.62-1.156l0.333,1.514C146.406,150.609,144.421,151.163,142.208,151.163z M136.522,140.471h9.91
			c0-1.985-0.418-3.507-1.255-4.564s-1.985-1.587-3.446-1.587c-1.482,0-2.679,0.564-3.589,1.692
			C137.231,137.141,136.691,138.627,136.522,140.471z"/>
		<path fill="#FFFFFF" d="M159.09,151.146c-2.319,0-4.126-0.824-5.423-2.474c-1.297-1.648-1.946-3.927-1.946-6.835
			c0-2.733,0.669-4.955,2.009-6.664c1.339-1.709,3.105-2.563,5.296-2.563c1.08,0,2.16,0.239,3.24,0.717
			c1.08,0.478,1.9,1.22,2.461,2.229v-0.537v-9l1.906-0.179v24.932h-1.636l-0.286-2.686c-0.604,1.01-1.422,1.771-2.454,2.287
			C161.227,150.889,160.17,151.146,159.09,151.146z M159.043,149.552c0.984,0,1.847-0.185,2.588-0.553
			c0.741-0.369,1.334-0.89,1.779-1.563c0.445-0.673,0.776-1.446,0.993-2.319c0.217-0.873,0.326-1.842,0.326-2.905
			c0-5.305-1.906-7.958-5.717-7.958c-0.9,0-1.694,0.22-2.382,0.659c-0.688,0.439-1.231,1.031-1.628,1.774s-0.691,1.552-0.881,2.425
			c-0.191,0.873-0.286,1.793-0.286,2.758c0,0.836,0.058,1.62,0.175,2.353c0.116,0.731,0.307,1.429,0.572,2.091
			s0.593,1.229,0.984,1.7c0.392,0.473,0.884,0.847,1.477,1.123C157.635,149.414,158.302,149.552,159.043,149.552z"/>
		<path fill="#FFFFFF" d="M183.74,151.18c-1.123,0-2.176-0.142-3.161-0.424c-0.985-0.281-1.763-0.618-2.334-1.009l0.286-1.692
			c1.747,0.934,3.42,1.399,5.019,1.399c2.87,0,4.357-1.09,4.463-3.271c0-0.912-0.289-1.628-0.865-2.148
			c-0.577-0.521-1.734-1.063-3.47-1.628c-0.911-0.325-1.414-0.504-1.509-0.537c-2.721-0.846-4.092-2.349-4.114-4.508
			c0-1.247,0.538-2.352,1.612-3.312c1.074-0.96,2.528-1.44,4.359-1.44s3.552,0.369,5.162,1.107l-0.667,1.497
			c-1.63-0.63-3.145-0.944-4.542-0.944c-1.229,0-2.195,0.282-2.898,0.847c-0.705,0.563-1.056,1.323-1.056,2.278
			c0,0.803,0.23,1.418,0.691,1.847c0.46,0.429,1.374,0.838,2.739,1.229c0.148,0.044,0.421,0.142,0.818,0.293
			c0.397,0.152,0.617,0.233,0.659,0.244c1.832,0.575,3.11,1.256,3.835,2.043c0.725,0.786,1.088,1.857,1.088,3.214
			c-0.032,1.563-0.601,2.772-1.707,3.629C187.041,150.751,185.571,151.18,183.74,151.18z"/>
		<path fill="#FFFFFF" d="M198.558,151.146c-1.461,0-2.531-0.339-3.208-1.017c-0.678-0.678-1.017-1.782-1.017-3.312v-12.401h-2.462
			l0.143-1.221l2.351-0.228l0.524-4.085l1.382-0.098v4.15h5.083v1.48h-5.083v11.978c0,1.259,0.201,2.103,0.604,2.531
			s1.112,0.643,2.128,0.643c0.656,0,1.472-0.125,2.446-0.374l0.079,1.562C200.246,151.017,199.256,151.146,198.558,151.146z"/>
		<path fill="#FFFFFF" d="M210.866,151.212c-0.911,0-1.755-0.105-2.533-0.317s-1.501-0.542-2.168-0.993
			c-0.667-0.449-1.194-1.087-1.58-1.912c-0.387-0.824-0.58-1.795-0.58-2.913v-12.14h1.969v12.188c0,0.847,0.127,1.563,0.381,2.148
			c0.254,0.586,0.619,1.028,1.096,1.326c0.477,0.299,0.985,0.508,1.524,0.627c0.54,0.119,1.17,0.179,1.89,0.179
			c0.709,0,1.334-0.063,1.874-0.187c0.54-0.125,1.043-0.34,1.509-0.644s0.823-0.745,1.072-1.326c0.249-0.58,0.373-1.288,0.373-2.124
			v-12.188h1.969v12.14c0,0.912-0.127,1.726-0.381,2.441c-0.254,0.716-0.593,1.302-1.017,1.758
			c-0.423,0.455-0.935,0.833-1.533,1.131c-0.598,0.299-1.212,0.507-1.842,0.627C212.261,151.152,211.586,151.212,210.866,151.212z"
			/>
		<path fill="#FFFFFF" d="M228.527,151.146c-2.319,0-4.126-0.824-5.423-2.474c-1.297-1.648-1.946-3.927-1.946-6.835
			c0-2.733,0.669-4.955,2.009-6.664c1.339-1.709,3.105-2.563,5.296-2.563c1.08,0,2.16,0.239,3.24,0.717
			c1.08,0.478,1.9,1.22,2.461,2.229v-0.537v-9l1.906-0.179v24.932h-1.636l-0.286-2.686c-0.604,1.01-1.422,1.771-2.454,2.287
			C230.663,150.889,229.607,151.146,228.527,151.146z M228.479,149.552c0.984,0,1.847-0.185,2.588-0.553
			c0.741-0.369,1.334-0.89,1.779-1.563c0.445-0.673,0.776-1.446,0.993-2.319c0.217-0.873,0.326-1.842,0.326-2.905
			c0-5.305-1.906-7.958-5.717-7.958c-0.9,0-1.694,0.22-2.382,0.659c-0.688,0.439-1.231,1.031-1.628,1.774s-0.691,1.552-0.881,2.425
			c-0.191,0.873-0.286,1.793-0.286,2.758c0,0.836,0.058,1.62,0.175,2.353c0.116,0.731,0.307,1.429,0.572,2.091
			s0.593,1.229,0.984,1.7c0.392,0.473,0.884,0.847,1.477,1.123C227.071,149.414,227.738,149.552,228.479,149.552z"/>
		<path fill="#FFFFFF" d="M247.792,151.163c-2.404,0-4.312-0.824-5.726-2.474s-2.12-3.884-2.12-6.705
			c0-2.723,0.691-4.952,2.073-6.688c1.382-1.735,3.168-2.631,5.36-2.686c2.043,0,3.685,0.749,4.924,2.246
			c1.239,1.497,1.858,3.505,1.858,6.021c0,0.098-0.002,0.296-0.008,0.594c-0.005,0.299-0.008,0.508-0.008,0.627h-12.118
			c0.021,2.289,0.561,4.104,1.62,5.443c1.059,1.34,2.456,2.01,4.193,2.01c1.133,0,2.117-0.136,2.954-0.406
			c0.836-0.271,1.709-0.657,2.62-1.156l0.333,1.514C251.99,150.609,250.005,151.163,247.792,151.163z M242.106,140.471h9.91
			c0-1.985-0.418-3.507-1.255-4.564s-1.985-1.587-3.446-1.587c-1.482,0-2.679,0.564-3.589,1.692
			C242.815,137.141,242.275,138.627,242.106,140.471z"/>
		<path fill="#FFFFFF" d="M258.099,150.772v-17.836h1.715l0.27,2.75c0.625-0.955,1.464-1.706,2.518-2.254
			c1.053-0.548,2.189-0.822,3.406-0.822c2.001,0,3.473,0.564,4.416,1.692c0.942,1.129,1.414,2.93,1.414,5.403v11.066h-1.985v-11.978
			c-0.053-1.584-0.381-2.724-0.985-3.418s-1.594-1.041-2.97-1.041c-1.578,0-2.867,0.406-3.867,1.221
			c-1.001,0.813-1.628,1.866-1.882,3.157c-0.042,0.51-0.063,1.041-0.063,1.595v10.464H258.099z"/>
		<path fill="#FFFFFF" d="M281.303,151.146c-1.461,0-2.531-0.339-3.208-1.017c-0.678-0.678-1.017-1.782-1.017-3.312v-12.401h-2.462
			l0.143-1.221l2.351-0.228l0.524-4.085l1.382-0.098v4.15h5.083v1.48h-5.083v11.978c0,1.259,0.201,2.103,0.604,2.531
			s1.112,0.643,2.128,0.643c0.656,0,1.472-0.125,2.446-0.374l0.079,1.562C282.991,151.017,282.001,151.146,281.303,151.146z"/>
		<path fill="#FFFFFF" d="M299.139,151.163c-1.642,0-2.954-0.423-3.939-1.27c-0.985-0.846-1.477-2.056-1.477-3.629
			c0-0.933,0.196-1.744,0.588-2.433c0.392-0.689,0.96-1.248,1.707-1.677s1.599-0.762,2.557-1.001
			c0.958-0.238,2.073-0.406,3.343-0.504c1.355-0.087,2.361-0.157,3.018-0.212v-1.985c0-1.367-0.305-2.395-0.914-3.084
			c-0.609-0.688-1.585-1.033-2.93-1.033c-1.842,0-3.563,0.45-5.162,1.351c-0.042-0.108-0.14-0.345-0.293-0.708
			c-0.154-0.363-0.262-0.643-0.326-0.838c0.656-0.434,1.514-0.798,2.573-1.091c1.059-0.293,2.096-0.439,3.113-0.439
			c2.086,0,3.584,0.459,4.495,1.375c0.911,0.917,1.366,2.542,1.366,4.875v11.912h-1.541c-0.053-0.249-0.129-0.743-0.23-1.48
			c-0.101-0.738-0.151-1.118-0.151-1.14C303.569,150.159,301.637,151.163,299.139,151.163z M299.202,149.552
			c1.355,0,2.56-0.409,3.613-1.229c1.054-0.819,1.745-1.955,2.073-3.409v-3.044c-1.524,0.131-2.292,0.195-2.303,0.195
			c-2.583,0.239-4.378,0.673-5.384,1.303c-1.006,0.629-1.509,1.605-1.509,2.929c0,1.085,0.32,1.899,0.961,2.441
			C297.293,149.281,298.143,149.552,299.202,149.552z"/>
		<path fill="#FFFFFF" d="M316.672,151.18c-1.123,0-2.176-0.142-3.161-0.424c-0.985-0.281-1.763-0.618-2.334-1.009l0.286-1.692
			c1.747,0.934,3.42,1.399,5.019,1.399c2.87,0,4.357-1.09,4.463-3.271c0-0.912-0.289-1.628-0.865-2.148
			c-0.577-0.521-1.734-1.063-3.47-1.628c-0.911-0.325-1.414-0.504-1.509-0.537c-2.721-0.846-4.092-2.349-4.114-4.508
			c0-1.247,0.538-2.352,1.612-3.312c1.074-0.96,2.528-1.44,4.359-1.44s3.552,0.369,5.162,1.107l-0.667,1.497
			c-1.63-0.63-3.145-0.944-4.542-0.944c-1.229,0-2.195,0.282-2.898,0.847c-0.705,0.563-1.056,1.323-1.056,2.278
			c0,0.803,0.23,1.418,0.691,1.847c0.46,0.429,1.374,0.838,2.739,1.229c0.148,0.044,0.421,0.142,0.818,0.293
			c0.397,0.152,0.617,0.233,0.659,0.244c1.832,0.575,3.11,1.256,3.835,2.043c0.725,0.786,1.088,1.857,1.088,3.214
			c-0.032,1.563-0.601,2.772-1.707,3.629C319.973,150.751,318.504,151.18,316.672,151.18z"/>
		<path fill="#FFFFFF" d="M331.665,151.18c-1.123,0-2.176-0.142-3.161-0.424c-0.985-0.281-1.763-0.618-2.334-1.009l0.286-1.692
			c1.747,0.934,3.42,1.399,5.019,1.399c2.87,0,4.357-1.09,4.463-3.271c0-0.912-0.289-1.628-0.865-2.148
			c-0.577-0.521-1.734-1.063-3.47-1.628c-0.911-0.325-1.414-0.504-1.509-0.537c-2.721-0.846-4.092-2.349-4.114-4.508
			c0-1.247,0.538-2.352,1.612-3.312c1.074-0.96,2.528-1.44,4.359-1.44s3.552,0.369,5.162,1.107l-0.667,1.497
			c-1.63-0.63-3.145-0.944-4.542-0.944c-1.229,0-2.195,0.282-2.898,0.847c-0.705,0.563-1.056,1.323-1.056,2.278
			c0,0.803,0.23,1.418,0.691,1.847c0.46,0.429,1.374,0.838,2.739,1.229c0.148,0.044,0.421,0.142,0.818,0.293
			c0.397,0.152,0.617,0.233,0.659,0.244c1.832,0.575,3.11,1.256,3.835,2.043c0.725,0.786,1.088,1.857,1.088,3.214
			c-0.032,1.563-0.601,2.772-1.707,3.629C334.966,150.751,333.497,151.18,331.665,151.18z"/>
		<path fill="#FFFFFF" d="M348.643,151.163c-1.578,0-2.968-0.407-4.169-1.221s-2.118-1.917-2.748-3.312s-0.945-2.97-0.945-4.728
			c0-1.323,0.183-2.553,0.548-3.687s0.887-2.115,1.564-2.945s1.519-1.48,2.525-1.953c1.006-0.472,2.123-0.708,3.351-0.708
			c1.63,0,3.044,0.41,4.24,1.229c1.196,0.818,2.094,1.92,2.692,3.303c0.598,1.384,0.897,2.96,0.897,4.728
			c0,1.78-0.307,3.364-0.921,4.753c-0.614,1.389-1.53,2.492-2.748,3.312C351.713,150.754,350.284,151.163,348.643,151.163z
			 M348.786,149.552c1.271,0,2.343-0.344,3.216-1.033c0.874-0.688,1.509-1.598,1.906-2.726c0.397-1.129,0.596-2.425,0.596-3.89
			c0-2.3-0.477-4.15-1.43-5.55c-0.953-1.399-2.403-2.1-4.352-2.1c-1.271,0-2.353,0.351-3.248,1.05
			c-0.895,0.7-1.549,1.617-1.961,2.751c-0.413,1.134-0.62,2.433-0.62,3.897c0,2.224,0.505,4.047,1.517,5.468
			C345.421,148.842,346.88,149.552,348.786,149.552z"/>
		<path fill="#FFFFFF" d="M367.733,151.163c-1.684,0-3.145-0.423-4.383-1.27c-1.239-0.846-2.16-1.95-2.764-3.312
			s-0.905-2.878-0.905-4.549c0-1.28,0.18-2.484,0.54-3.612c0.36-1.129,0.871-2.127,1.533-2.995c0.662-0.867,1.514-1.554,2.557-2.059
			c1.043-0.504,2.205-0.757,3.486-0.757c0.836,0,1.67,0.114,2.501,0.342c0.831,0.229,1.448,0.499,1.85,0.814l-0.619,1.513
			c-1.091-0.629-2.382-0.943-3.875-0.943c-1.811,0-3.245,0.702-4.304,2.107c-1.059,1.405-1.588,3.269-1.588,5.59
			c0,2.225,0.526,4.022,1.58,5.395c1.054,1.373,2.491,2.059,4.312,2.059c1.271,0,2.637-0.325,4.098-0.976l0.302,1.448
			c-0.498,0.38-1.144,0.675-1.938,0.887S368.527,151.163,367.733,151.163z"/>
		<path fill="#FFFFFF" d="M376.007,129.291v-2.734h1.969v2.734H376.007z M376.007,150.772v-17.836h1.985v17.836H376.007z"/>
		<path fill="#FFFFFF" d="M387.522,151.163c-1.642,0-2.954-0.423-3.939-1.27c-0.985-0.846-1.477-2.056-1.477-3.629
			c0-0.933,0.196-1.744,0.588-2.433c0.392-0.689,0.96-1.248,1.707-1.677s1.599-0.762,2.557-1.001
			c0.958-0.238,2.073-0.406,3.343-0.504c1.355-0.087,2.361-0.157,3.018-0.212v-1.985c0-1.367-0.305-2.395-0.914-3.084
			c-0.609-0.688-1.585-1.033-2.93-1.033c-1.842,0-3.563,0.45-5.162,1.351c-0.042-0.108-0.14-0.345-0.293-0.708
			c-0.154-0.363-0.262-0.643-0.326-0.838c0.656-0.434,1.514-0.798,2.573-1.091c1.059-0.293,2.096-0.439,3.113-0.439
			c2.086,0,3.584,0.459,4.495,1.375c0.911,0.917,1.366,2.542,1.366,4.875v11.912H393.7c-0.053-0.249-0.129-0.743-0.23-1.48
			c-0.101-0.738-0.151-1.118-0.151-1.14C391.953,150.159,390.021,151.163,387.522,151.163z M387.585,149.552
			c1.355,0,2.56-0.409,3.613-1.229c1.054-0.819,1.745-1.955,2.073-3.409v-3.044c-1.524,0.131-2.292,0.195-2.303,0.195
			c-2.583,0.239-4.378,0.673-5.384,1.303c-1.006,0.629-1.509,1.605-1.509,2.929c0,1.085,0.32,1.899,0.961,2.441
			C385.677,149.281,386.526,149.552,387.585,149.552z"/>
		<path fill="#FFFFFF" d="M404.881,151.146c-1.461,0-2.531-0.339-3.208-1.017c-0.678-0.678-1.017-1.782-1.017-3.312v-12.401h-2.462
			l0.143-1.221l2.351-0.228l0.524-4.085l1.382-0.098v4.15h5.083v1.48h-5.083v11.978c0,1.259,0.201,2.103,0.604,2.531
			s1.112,0.643,2.128,0.643c0.656,0,1.472-0.125,2.446-0.374l0.079,1.562C406.569,151.017,405.58,151.146,404.881,151.146z"/>
		<path fill="#FFFFFF" d="M410.916,129.291v-2.734h1.969v2.734H410.916z M410.916,150.772v-17.836h1.985v17.836H410.916z"/>
		<path fill="#FFFFFF" d="M424.845,151.163c-1.578,0-2.968-0.407-4.169-1.221s-2.118-1.917-2.748-3.312s-0.945-2.97-0.945-4.728
			c0-1.323,0.183-2.553,0.548-3.687s0.887-2.115,1.564-2.945s1.519-1.48,2.525-1.953c1.006-0.472,2.123-0.708,3.351-0.708
			c1.63,0,3.044,0.41,4.24,1.229c1.196,0.818,2.094,1.92,2.692,3.303c0.598,1.384,0.897,2.96,0.897,4.728
			c0,1.78-0.307,3.364-0.921,4.753c-0.614,1.389-1.53,2.492-2.748,3.312C427.915,150.754,426.485,151.163,424.845,151.163z
			 M424.987,149.552c1.271,0,2.343-0.344,3.216-1.033c0.874-0.688,1.509-1.598,1.906-2.726c0.397-1.129,0.596-2.425,0.596-3.89
			c0-2.3-0.477-4.15-1.43-5.55c-0.953-1.399-2.403-2.1-4.352-2.1c-1.271,0-2.353,0.351-3.248,1.05
			c-0.895,0.7-1.549,1.617-1.961,2.751c-0.413,1.134-0.62,2.433-0.62,3.897c0,2.224,0.505,4.047,1.517,5.468
			C421.623,148.842,423.082,149.552,424.987,149.552z"/>
		<path fill="#FFFFFF" d="M436.676,150.772v-17.836h1.715l0.27,2.75c0.625-0.955,1.464-1.706,2.518-2.254
			c1.053-0.548,2.189-0.822,3.406-0.822c2.001,0,3.473,0.564,4.416,1.692c0.942,1.129,1.414,2.93,1.414,5.403v11.066h-1.985v-11.978
			c-0.053-1.584-0.381-2.724-0.985-3.418s-1.594-1.041-2.97-1.041c-1.578,0-2.867,0.406-3.867,1.221
			c-1.001,0.813-1.628,1.866-1.882,3.157c-0.042,0.51-0.063,1.041-0.063,1.595v10.464H436.676z"/>
		<path fill="#FFFFFF" d="M465.201,150.772l-4.86-17.836h2.064l4.018,15.932c2.891-9.525,4.505-14.836,4.844-15.932h2.414
			c3.166,10.589,4.765,15.883,4.796,15.883l3.843-15.883h2.049l-4.781,17.836h-2.287c-0.032,0.011-0.778-2.49-2.24-7.502
			c-1.461-5.013-2.308-7.958-2.541-8.837c-0.127,0.586-0.609,2.237-1.445,4.955s-1.641,5.297-2.414,7.738s-1.165,3.656-1.175,3.646
			H465.201z"/>
		<path fill="#FFFFFF" d="M487.26,129.291v-2.734h1.969v2.734H487.26z M487.26,150.772v-17.836h1.985v17.836H487.26z"/>
		<path fill="#FFFFFF" d="M499.029,151.146c-1.461,0-2.531-0.339-3.208-1.017c-0.678-0.678-1.017-1.782-1.017-3.312v-12.401h-2.462
			l0.143-1.221l2.351-0.228l0.524-4.085l1.382-0.098v4.15h5.083v1.48h-5.083v11.978c0,1.259,0.201,2.103,0.604,2.531
			s1.112,0.643,2.128,0.643c0.656,0,1.472-0.125,2.446-0.374l0.079,1.562C500.717,151.017,499.728,151.146,499.029,151.146z"/>
		<path fill="#FFFFFF" d="M504.857,150.772V126.02l1.97-0.179v8.511c0,0.229,0,0.386,0,0.473s-0.003,0.136-0.008,0.146
			s-0.01,0.07-0.016,0.179s-0.014,0.271-0.024,0.488c1.419-2.018,3.452-3.027,6.099-3.027c3.78,0,5.67,2.339,5.67,7.015v11.147
			h-1.954v-10.757c0-2.007-0.302-3.459-0.905-4.354c-0.604-0.896-1.667-1.343-3.192-1.343c-1.515,0-2.774,0.41-3.78,1.229
			c-1.006,0.819-1.625,1.875-1.858,3.166c-0.021,0.434-0.032,1.079-0.032,1.937v10.122H504.857z"/>
		<path fill="#FFFFFF" d="M535.367,151.146c-1.461,0-2.531-0.339-3.208-1.017c-0.678-0.678-1.017-1.782-1.017-3.312v-12.401h-2.462
			l0.143-1.221l2.351-0.228l0.524-4.085l1.382-0.098v4.15h5.083v1.48h-5.083v11.978c0,1.259,0.201,2.103,0.604,2.531
			s1.112,0.643,2.128,0.643c0.656,0,1.472-0.125,2.446-0.374l0.079,1.562C537.056,151.017,536.066,151.146,535.367,151.146z"/>
		<path fill="#FFFFFF" d="M541.196,150.772V126.02l1.97-0.179v8.511c0,0.229,0,0.386,0,0.473s-0.003,0.136-0.008,0.146
			s-0.01,0.07-0.016,0.179s-0.014,0.271-0.024,0.488c1.419-2.018,3.452-3.027,6.099-3.027c3.78,0,5.67,2.339,5.67,7.015v11.147
			h-1.954v-10.757c0-2.007-0.302-3.459-0.905-4.354c-0.604-0.896-1.667-1.343-3.192-1.343c-1.515,0-2.774,0.41-3.78,1.229
			c-1.006,0.819-1.625,1.875-1.858,3.166c-0.021,0.434-0.032,1.079-0.032,1.937v10.122H541.196z"/>
		<path fill="#FFFFFF" d="M566.496,151.163c-2.404,0-4.312-0.824-5.726-2.474s-2.12-3.884-2.12-6.705
			c0-2.723,0.691-4.952,2.073-6.688c1.382-1.735,3.168-2.631,5.36-2.686c2.043,0,3.685,0.749,4.924,2.246
			c1.239,1.497,1.858,3.505,1.858,6.021c0,0.098-0.002,0.296-0.008,0.594c-0.005,0.299-0.008,0.508-0.008,0.627h-12.118
			c0.021,2.289,0.561,4.104,1.62,5.443c1.059,1.34,2.456,2.01,4.193,2.01c1.133,0,2.117-0.136,2.954-0.406
			c0.836-0.271,1.709-0.657,2.62-1.156l0.333,1.514C570.694,150.609,568.709,151.163,566.496,151.163z M560.811,140.471h9.91
			c0-1.985-0.418-3.507-1.255-4.564s-1.985-1.587-3.446-1.587c-1.482,0-2.679,0.564-3.589,1.692
			C561.52,137.141,560.979,138.627,560.811,140.471z"/>
		<path fill="#FFFFFF" d="M594.734,151.146c-1.811,0-3.425-0.317-4.844-0.952s-2.575-1.516-3.47-2.645
			c-0.895-1.128-1.572-2.451-2.033-3.971c-0.46-1.519-0.691-3.184-0.691-4.996c0-2.408,0.431-4.543,1.294-6.403
			c0.863-1.86,2.152-3.334,3.867-4.419c1.715-1.084,3.743-1.627,6.083-1.627c2.573,0,4.765,0.553,6.575,1.66l-0.969,1.61
			c-1.652-1.02-3.516-1.529-5.591-1.529c-1.451,0-2.753,0.279-3.907,0.838c-1.154,0.56-2.099,1.332-2.835,2.319
			c-0.736,0.987-1.297,2.132-1.684,3.434c-0.387,1.302-0.58,2.713-0.58,4.231c0,1.486,0.177,2.861,0.532,4.125
			c0.355,1.265,0.89,2.393,1.604,3.386c0.714,0.992,1.665,1.773,2.851,2.343c1.186,0.57,2.552,0.854,4.098,0.854
			c1.662,0,3.515-0.472,5.559-1.416l0.413,1.677C599.462,150.653,597.371,151.146,594.734,151.146z"/>
		<path fill="#FFFFFF" d="M611.648,151.163c-1.578,0-2.967-0.407-4.168-1.221c-1.203-0.813-2.119-1.917-2.748-3.312
			c-0.631-1.395-0.945-2.97-0.945-4.728c0-1.323,0.184-2.553,0.549-3.687s0.887-2.115,1.564-2.945
			c0.676-0.83,1.518-1.48,2.523-1.953c1.006-0.472,2.123-0.708,3.352-0.708c1.631,0,3.045,0.41,4.24,1.229
			c1.197,0.818,2.094,1.92,2.693,3.303c0.598,1.384,0.896,2.96,0.896,4.728c0,1.78-0.307,3.364-0.922,4.753
			c-0.613,1.389-1.529,2.492-2.746,3.312C614.719,150.754,613.289,151.163,611.648,151.163z M611.791,149.552
			c1.271,0,2.344-0.344,3.217-1.033c0.873-0.688,1.508-1.598,1.906-2.726c0.396-1.129,0.596-2.425,0.596-3.89
			c0-2.3-0.477-4.15-1.43-5.55s-2.404-2.1-4.352-2.1c-1.271,0-2.354,0.351-3.248,1.05c-0.895,0.7-1.549,1.617-1.961,2.751
			c-0.414,1.134-0.619,2.433-0.619,3.897c0,2.224,0.504,4.047,1.516,5.468C608.428,148.842,609.887,149.552,611.791,149.552z"/>
		<path fill="#FFFFFF" d="M627.863,151.146c-1.461,0-2.529-0.339-3.207-1.017s-1.018-1.782-1.018-3.312v-20.814l1.938-0.163v20.863
			c0,1.085,0.193,1.833,0.58,2.246c0.387,0.412,0.973,0.618,1.756,0.618c0.635,0,1.43-0.125,2.383-0.374l0.078,1.562
			C629.336,151.017,628.5,151.146,627.863,151.146z"/>
		<path fill="#FFFFFF" d="M637.092,151.146c-1.461,0-2.531-0.339-3.209-1.017s-1.016-1.782-1.016-3.312v-20.814l1.938-0.163v20.863
			c0,1.085,0.193,1.833,0.58,2.246c0.387,0.412,0.971,0.618,1.754,0.618c0.637,0,1.43-0.125,2.383-0.374l0.08,1.562
			C638.563,151.017,637.727,151.146,637.092,151.146z"/>
		<path fill="#FFFFFF" d="M648.988,151.163c-2.404,0-4.313-0.824-5.727-2.474s-2.119-3.884-2.119-6.705
			c0-2.723,0.689-4.952,2.072-6.688c1.381-1.735,3.168-2.631,5.359-2.686c2.043,0,3.686,0.749,4.924,2.246s1.857,3.505,1.857,6.021
			c0,0.098-0.002,0.296-0.008,0.594c-0.006,0.299-0.008,0.508-0.008,0.627h-12.117c0.021,2.289,0.561,4.104,1.619,5.443
			s2.457,2.01,4.193,2.01c1.133,0,2.117-0.136,2.953-0.406c0.838-0.271,1.711-0.657,2.621-1.156l0.334,1.514
			C653.186,150.609,651.199,151.163,648.988,151.163z M643.301,140.471h9.912c0-1.985-0.42-3.507-1.256-4.564
			s-1.984-1.587-3.445-1.587c-1.482,0-2.68,0.564-3.59,1.692C644.012,137.141,643.471,138.627,643.301,140.471z"/>
		<path fill="#FFFFFF" d="M661.979,159.056l-0.238-1.807h3.686c0.814,0,1.535-0.072,2.16-0.219s1.15-0.337,1.58-0.57
			c0.428-0.233,0.793-0.559,1.096-0.977c0.301-0.417,0.537-0.832,0.707-1.244c0.168-0.413,0.299-0.947,0.389-1.604
			s0.145-1.259,0.166-1.807s0.033-1.239,0.033-2.074c0,0.119-0.012,0.092-0.033-0.082l-0.078-1.123
			c-0.668,1.031-1.457,1.826-2.367,2.385s-2.021,0.838-3.334,0.838c-1.039,0-1.984-0.189-2.836-0.569s-1.551-0.873-2.096-1.481
			c-0.547-0.607-1.004-1.302-1.375-2.083s-0.635-1.56-0.793-2.335c-0.16-0.775-0.238-1.543-0.238-2.303
			c0-0.955,0.076-1.863,0.23-2.727c0.152-0.862,0.42-1.705,0.801-2.53c0.381-0.824,0.857-1.538,1.43-2.14
			c0.572-0.603,1.309-1.085,2.207-1.448c0.9-0.363,1.918-0.546,3.051-0.546c1.111,0,2.094,0.226,2.945,0.676
			s1.645,1.169,2.375,2.156l0.189-2.506h1.748v16.534c0,0.716-0.008,1.294-0.023,1.733c-0.018,0.439-0.08,1.035-0.191,1.79
			c-0.111,0.754-0.266,1.372-0.461,1.854c-0.195,0.483-0.494,1.018-0.896,1.604s-0.887,1.047-1.453,1.383
			c-0.566,0.337-1.293,0.624-2.176,0.863c-0.885,0.238-1.889,0.357-3.01,0.357H661.979z M665.998,149.129
			c0.771,0,1.471-0.128,2.096-0.383s1.141-0.591,1.549-1.009c0.406-0.417,0.752-0.908,1.031-1.473
			c0.281-0.564,0.48-1.147,0.596-1.75c0.117-0.602,0.176-1.223,0.176-1.863v-1.854c0-0.847-0.102-1.645-0.303-2.393
			c-0.201-0.749-0.51-1.44-0.928-2.075c-0.42-0.635-0.994-1.136-1.725-1.505s-1.578-0.554-2.541-0.554
			c-0.783,0-1.49,0.154-2.119,0.464c-0.631,0.31-1.146,0.719-1.549,1.229c-0.402,0.511-0.742,1.106-1.018,1.79
			s-0.467,1.381-0.578,2.092s-0.168,1.44-0.168,2.188c0,0.662,0.051,1.305,0.15,1.929c0.102,0.624,0.281,1.256,0.541,1.896
			c0.26,0.641,0.59,1.196,0.992,1.668c0.402,0.473,0.93,0.857,1.58,1.156C664.434,148.979,665.172,149.129,665.998,149.129z"/>
		<path fill="#FFFFFF" d="M684.977,151.163c-2.404,0-4.313-0.824-5.725-2.474c-1.414-1.649-2.121-3.884-2.121-6.705
			c0-2.723,0.691-4.952,2.072-6.688c1.383-1.735,3.168-2.631,5.361-2.686c2.043,0,3.684,0.749,4.922,2.246
			c1.24,1.497,1.859,3.505,1.859,6.021c0,0.098-0.004,0.296-0.008,0.594c-0.006,0.299-0.008,0.508-0.008,0.627h-12.119
			c0.021,2.289,0.563,4.104,1.621,5.443s2.455,2.01,4.191,2.01c1.133,0,2.119-0.136,2.955-0.406
			c0.836-0.271,1.709-0.657,2.621-1.156l0.332,1.514C689.174,150.609,687.189,151.163,684.977,151.163z M679.291,140.471h9.91
			c0-1.985-0.418-3.507-1.254-4.564c-0.838-1.058-1.986-1.587-3.447-1.587c-1.482,0-2.68,0.564-3.59,1.692
			C680,137.141,679.461,138.627,679.291,140.471z"/>
		<path fill="#FFFFFF" d="M709.705,151.163c-1.578,0-2.967-0.407-4.168-1.221c-1.203-0.813-2.119-1.917-2.748-3.312
			c-0.631-1.395-0.945-2.97-0.945-4.728c0-1.323,0.184-2.553,0.549-3.687s0.887-2.115,1.564-2.945
			c0.676-0.83,1.518-1.48,2.523-1.953c1.006-0.472,2.123-0.708,3.352-0.708c1.631,0,3.045,0.41,4.24,1.229
			c1.197,0.818,2.094,1.92,2.693,3.303c0.598,1.384,0.896,2.96,0.896,4.728c0,1.78-0.307,3.364-0.922,4.753
			c-0.613,1.389-1.529,2.492-2.746,3.312C712.775,150.754,711.346,151.163,709.705,151.163z M709.848,149.552
			c1.271,0,2.344-0.344,3.217-1.033c0.873-0.688,1.508-1.598,1.906-2.726c0.396-1.129,0.596-2.425,0.596-3.89
			c0-2.3-0.477-4.15-1.43-5.55s-2.404-2.1-4.352-2.1c-1.271,0-2.354,0.351-3.248,1.05c-0.895,0.7-1.549,1.617-1.961,2.751
			c-0.414,1.134-0.619,2.433-0.619,3.897c0,2.224,0.504,4.047,1.516,5.468C706.484,148.842,707.943,149.552,709.848,149.552z"/>
		<path fill="#FFFFFF" d="M722.633,150.772v-16.355h-2.859l0.129-1.253l2.73-0.228v-0.668c0-2.343,0.4-4.046,1.199-5.109
			s2.025-1.595,3.678-1.595c0.477,0,1.285,0.081,2.43,0.244l-0.143,1.334c-1.018-0.119-1.705-0.179-2.066-0.179
			c-1.207,0-2.029,0.398-2.469,1.196c-0.439,0.797-0.66,2.199-0.66,4.206v0.57h4.242v1.48h-4.242v16.355H722.633z"/>
		<path fill="#FFFFFF" d="M747.139,151.146c-2,0-3.77-0.217-5.305-0.65c-1.535-0.435-2.727-0.912-3.572-1.433l0.762-1.48
			c2.234,1.236,4.998,1.855,8.291,1.855c1.811,0,3.205-0.483,4.184-1.449c0.98-0.965,1.471-2.327,1.471-4.084
			c0-0.651-0.059-1.199-0.176-1.645c-0.117-0.444-0.334-0.87-0.65-1.277c-0.318-0.406-0.781-0.748-1.391-1.025
			c-0.609-0.276-1.385-0.513-2.326-0.708l-3.813-0.78c-2.127-0.435-3.723-1.118-4.787-2.051s-1.596-2.263-1.596-3.987
			c0-1.117,0.211-2.086,0.635-2.905c0.424-0.818,1.035-1.473,1.834-1.961s1.727-0.849,2.779-1.082s2.252-0.35,3.598-0.35
			c1.334,0,2.639,0.168,3.914,0.504c1.275,0.337,2.322,0.717,3.137,1.14l-0.523,1.595c-0.625-0.358-1.549-0.697-2.771-1.017
			c-1.223-0.32-2.49-0.48-3.805-0.48c-2.232,0-3.912,0.383-5.033,1.147c-1.123,0.765-1.684,1.972-1.684,3.621
			c0,1.03,0.354,1.857,1.064,2.481c0.709,0.624,1.756,1.088,3.145,1.392l4.256,0.895c1.059,0.229,1.955,0.5,2.691,0.814
			s1.387,0.722,1.953,1.22c0.566,0.5,0.988,1.121,1.264,1.864s0.412,1.624,0.412,2.645c0,2.278-0.729,4.047-2.184,5.305
			C751.457,150.518,749.531,151.146,747.139,151.146z"/>
		<path fill="#FFFFFF" d="M765.309,151.212c-0.912,0-1.756-0.105-2.533-0.317c-0.779-0.212-1.502-0.542-2.168-0.993
			c-0.668-0.449-1.193-1.087-1.58-1.912c-0.387-0.824-0.58-1.795-0.58-2.913v-12.14h1.969v12.188c0,0.847,0.127,1.563,0.381,2.148
			c0.256,0.586,0.621,1.028,1.096,1.326c0.477,0.299,0.986,0.508,1.525,0.627c0.541,0.119,1.17,0.179,1.891,0.179
			c0.709,0,1.334-0.063,1.873-0.187c0.541-0.125,1.043-0.34,1.51-0.644c0.465-0.304,0.822-0.745,1.072-1.326
			c0.248-0.58,0.373-1.288,0.373-2.124v-12.188h1.969v12.14c0,0.912-0.127,1.726-0.381,2.441s-0.594,1.302-1.016,1.758
			c-0.424,0.455-0.936,0.833-1.533,1.131c-0.6,0.299-1.213,0.507-1.842,0.627C766.703,151.152,766.027,151.212,765.309,151.212z"/>
		<path fill="#FFFFFF" d="M776.426,150.772c-0.021-10.47-0.031-16.415-0.031-17.836h1.619l0.127,3.515
			c0.625-1.063,1.418-1.931,2.383-2.604c0.963-0.673,1.969-1.009,3.018-1.009c0.434,0,0.9,0.038,1.396,0.113l-0.143,1.677
			c-0.381-0.065-0.783-0.098-1.207-0.098c-1.471,0-2.707,0.594-3.709,1.782c-1,1.188-1.5,2.596-1.5,4.223v10.236H776.426z"/>
		<path fill="#FFFFFF" d="M790.434,159.056l-0.238-1.807h3.684c0.816,0,1.535-0.072,2.16-0.219s1.152-0.337,1.58-0.57
			c0.43-0.233,0.795-0.559,1.096-0.977c0.303-0.417,0.539-0.832,0.707-1.244c0.17-0.413,0.299-0.947,0.391-1.604
			c0.09-0.656,0.145-1.259,0.166-1.807s0.031-1.239,0.031-2.074c0,0.119-0.01,0.092-0.031-0.082l-0.08-1.123
			c-0.666,1.031-1.455,1.826-2.365,2.385c-0.912,0.559-2.023,0.838-3.336,0.838c-1.037,0-1.982-0.189-2.834-0.569
			c-0.854-0.38-1.553-0.873-2.098-1.481c-0.545-0.607-1.004-1.302-1.373-2.083c-0.371-0.781-0.635-1.56-0.795-2.335
			c-0.158-0.775-0.238-1.543-0.238-2.303c0-0.955,0.076-1.863,0.23-2.727c0.154-0.862,0.422-1.705,0.803-2.53
			c0.381-0.824,0.857-1.538,1.43-2.14c0.57-0.603,1.307-1.085,2.207-1.448s1.916-0.546,3.049-0.546c1.111,0,2.094,0.226,2.947,0.676
			c0.852,0.45,1.643,1.169,2.373,2.156l0.191-2.506h1.746v16.534c0,0.716-0.008,1.294-0.023,1.733s-0.08,1.035-0.189,1.79
			c-0.111,0.754-0.266,1.372-0.461,1.854c-0.197,0.483-0.496,1.018-0.898,1.604s-0.887,1.047-1.453,1.383
			c-0.566,0.337-1.291,0.624-2.176,0.863c-0.883,0.238-1.887,0.357-3.01,0.357H790.434z M794.451,149.129
			c0.773,0,1.473-0.128,2.096-0.383c0.625-0.255,1.143-0.591,1.549-1.009c0.408-0.417,0.752-0.908,1.033-1.473
			c0.279-0.564,0.479-1.147,0.596-1.75c0.115-0.602,0.174-1.223,0.174-1.863v-1.854c0-0.847-0.1-1.645-0.301-2.393
			c-0.201-0.749-0.512-1.44-0.93-2.075s-0.992-1.136-1.723-1.505s-1.578-0.554-2.541-0.554c-0.785,0-1.49,0.154-2.121,0.464
			c-0.629,0.31-1.146,0.719-1.549,1.229c-0.402,0.511-0.74,1.106-1.016,1.79s-0.469,1.381-0.58,2.092s-0.166,1.44-0.166,2.188
			c0,0.662,0.049,1.305,0.15,1.929c0.1,0.624,0.281,1.256,0.539,1.896c0.26,0.641,0.592,1.196,0.994,1.668
			c0.402,0.473,0.928,0.857,1.58,1.156C792.887,148.979,793.625,149.129,794.451,149.129z"/>
		<path fill="#FFFFFF" d="M813.432,151.163c-2.404,0-4.313-0.824-5.727-2.474s-2.119-3.884-2.119-6.705
			c0-2.723,0.689-4.952,2.072-6.688c1.381-1.735,3.168-2.631,5.359-2.686c2.043,0,3.686,0.749,4.924,2.246s1.857,3.505,1.857,6.021
			c0,0.098-0.002,0.296-0.008,0.594c-0.006,0.299-0.008,0.508-0.008,0.627h-12.117c0.021,2.289,0.561,4.104,1.619,5.443
			s2.457,2.01,4.193,2.01c1.133,0,2.117-0.136,2.953-0.406c0.838-0.271,1.711-0.657,2.621-1.156l0.334,1.514
			C817.629,150.609,815.643,151.163,813.432,151.163z M807.744,140.471h9.912c0-1.985-0.42-3.507-1.256-4.564
			s-1.984-1.587-3.445-1.587c-1.482,0-2.68,0.564-3.59,1.692C808.455,137.141,807.914,138.627,807.744,140.471z"/>
		<path fill="#FFFFFF" d="M830.807,151.163c-1.578,0-2.969-0.407-4.17-1.221s-2.117-1.917-2.748-3.312
			c-0.629-1.395-0.943-2.97-0.943-4.728c0-1.323,0.182-2.553,0.547-3.687s0.887-2.115,1.564-2.945s1.52-1.48,2.525-1.953
			c1.006-0.472,2.123-0.708,3.352-0.708c1.629,0,3.043,0.41,4.24,1.229c1.195,0.818,2.094,1.92,2.691,3.303
			c0.598,1.384,0.898,2.96,0.898,4.728c0,1.78-0.309,3.364-0.922,4.753c-0.615,1.389-1.529,2.492-2.748,3.312
			C833.877,150.754,832.447,151.163,830.807,151.163z M830.949,149.552c1.27,0,2.342-0.344,3.215-1.033
			c0.875-0.688,1.51-1.598,1.906-2.726c0.398-1.129,0.596-2.425,0.596-3.89c0-2.3-0.477-4.15-1.43-5.55s-2.402-2.1-4.352-2.1
			c-1.27,0-2.354,0.351-3.248,1.05c-0.895,0.7-1.547,1.617-1.961,2.751c-0.412,1.134-0.619,2.433-0.619,3.897
			c0,2.224,0.506,4.047,1.518,5.468C827.584,148.842,829.043,149.552,830.949,149.552z"/>
		<path fill="#FFFFFF" d="M842.639,150.772v-17.836h1.715l0.27,2.75c0.625-0.955,1.463-1.706,2.518-2.254
			c1.053-0.548,2.189-0.822,3.406-0.822c2.002,0,3.473,0.564,4.416,1.692c0.941,1.129,1.412,2.93,1.412,5.403v11.066h-1.984v-11.978
			c-0.053-1.584-0.381-2.724-0.984-3.418s-1.594-1.041-2.971-1.041c-1.578,0-2.867,0.406-3.867,1.221
			c-1,0.813-1.627,1.866-1.881,3.157c-0.043,0.51-0.064,1.041-0.064,1.595v10.464H842.639z"/>
		<path fill="#FFFFFF" d="M866.016,151.18c-1.121,0-2.176-0.142-3.16-0.424c-0.984-0.281-1.764-0.618-2.334-1.009l0.285-1.692
			c1.748,0.934,3.42,1.399,5.02,1.399c2.869,0,4.355-1.09,4.463-3.271c0-0.912-0.289-1.628-0.867-2.148
			c-0.576-0.521-1.732-1.063-3.469-1.628c-0.912-0.325-1.414-0.504-1.51-0.537c-2.721-0.846-4.092-2.349-4.113-4.508
			c0-1.247,0.537-2.352,1.611-3.312c1.076-0.96,2.529-1.44,4.361-1.44c1.83,0,3.551,0.369,5.16,1.107l-0.666,1.497
			c-1.631-0.63-3.145-0.944-4.543-0.944c-1.229,0-2.193,0.282-2.898,0.847c-0.703,0.563-1.057,1.323-1.057,2.278
			c0,0.803,0.23,1.418,0.691,1.847s1.375,0.838,2.74,1.229c0.148,0.044,0.42,0.142,0.818,0.293c0.396,0.152,0.615,0.233,0.658,0.244
			c1.832,0.575,3.109,1.256,3.836,2.043c0.725,0.786,1.088,1.857,1.088,3.214c-0.031,1.563-0.602,2.772-1.707,3.629
			C869.316,150.751,867.848,151.18,866.016,151.18z"/>
		<path fill="#FFFFFF" d="M890.348,151.163c-1.578,0-2.969-0.407-4.17-1.221s-2.117-1.917-2.748-3.312
			c-0.629-1.395-0.943-2.97-0.943-4.728c0-1.323,0.182-2.553,0.547-3.687s0.887-2.115,1.564-2.945s1.52-1.48,2.525-1.953
			c1.006-0.472,2.123-0.708,3.352-0.708c1.629,0,3.043,0.41,4.24,1.229c1.195,0.818,2.094,1.92,2.691,3.303
			c0.598,1.384,0.898,2.96,0.898,4.728c0,1.78-0.309,3.364-0.922,4.753c-0.615,1.389-1.529,2.492-2.748,3.312
			C893.418,150.754,891.988,151.163,890.348,151.163z M890.49,149.552c1.27,0,2.342-0.344,3.215-1.033
			c0.875-0.688,1.51-1.598,1.906-2.726c0.398-1.129,0.596-2.425,0.596-3.89c0-2.3-0.477-4.15-1.43-5.55s-2.402-2.1-4.352-2.1
			c-1.27,0-2.354,0.351-3.248,1.05c-0.895,0.7-1.547,1.617-1.961,2.751c-0.412,1.134-0.619,2.433-0.619,3.897
			c0,2.224,0.506,4.047,1.518,5.468C887.125,148.842,888.584,149.552,890.49,149.552z"/>
		<path fill="#FFFFFF" d="M903.275,150.772v-16.355h-2.859l0.127-1.253l2.732-0.228v-0.668c0-2.343,0.398-4.046,1.199-5.109
			c0.799-1.063,2.023-1.595,3.676-1.595c0.477,0,1.287,0.081,2.43,0.244l-0.143,1.334c-1.016-0.119-1.705-0.179-2.064-0.179
			c-1.207,0-2.031,0.398-2.471,1.196c-0.439,0.797-0.658,2.199-0.658,4.206v0.57h4.24v1.48h-4.24v16.355H903.275z"/>
		<path fill="#FFFFFF" d="M920.221,150.772v-24.216h2.033v10.708h13.563v-10.708h2.033v24.216h-2.033v-11.685h-13.563v11.685
			H920.221z"/>
		<path fill="#FFFFFF" d="M950.143,151.163c-1.578,0-2.967-0.407-4.168-1.221c-1.203-0.813-2.119-1.917-2.748-3.312
			c-0.631-1.395-0.945-2.97-0.945-4.728c0-1.323,0.184-2.553,0.549-3.687s0.887-2.115,1.564-2.945
			c0.676-0.83,1.518-1.48,2.523-1.953c1.006-0.472,2.123-0.708,3.352-0.708c1.631,0,3.045,0.41,4.24,1.229
			c1.197,0.818,2.094,1.92,2.693,3.303c0.598,1.384,0.896,2.96,0.896,4.728c0,1.78-0.307,3.364-0.922,4.753
			c-0.613,1.389-1.529,2.492-2.746,3.312C953.213,150.754,951.783,151.163,950.143,151.163z M950.285,149.552
			c1.271,0,2.344-0.344,3.217-1.033c0.873-0.688,1.508-1.598,1.906-2.726c0.396-1.129,0.596-2.425,0.596-3.89
			c0-2.3-0.477-4.15-1.43-5.55s-2.404-2.1-4.352-2.1c-1.271,0-2.354,0.351-3.248,1.05c-0.895,0.7-1.549,1.617-1.961,2.751
			c-0.414,1.134-0.619,2.433-0.619,3.897c0,2.224,0.504,4.047,1.516,5.468C946.922,148.842,948.381,149.552,950.285,149.552z"/>
		<path fill="#FFFFFF" d="M961.975,150.772v-17.836h1.715l0.271,2.75c0.623-0.955,1.463-1.706,2.516-2.254
			c1.055-0.548,2.189-0.822,3.408-0.822c2,0,3.473,0.564,4.414,1.692c0.943,1.129,1.414,2.93,1.414,5.403v11.066h-1.986v-11.978
			c-0.053-1.584-0.381-2.724-0.984-3.418s-1.594-1.041-2.969-1.041c-1.578,0-2.867,0.406-3.867,1.221
			c-1.002,0.813-1.629,1.866-1.883,3.157c-0.043,0.51-0.063,1.041-0.063,1.595v10.464H961.975z"/>
		<path fill="#FFFFFF" d="M982.955,159.056l-0.238-1.807h3.684c0.816,0,1.535-0.072,2.16-0.219s1.152-0.337,1.58-0.57
			c0.43-0.233,0.795-0.559,1.096-0.977c0.303-0.417,0.539-0.832,0.707-1.244c0.17-0.413,0.299-0.947,0.391-1.604
			c0.09-0.656,0.145-1.259,0.166-1.807s0.031-1.239,0.031-2.074c0,0.119-0.01,0.092-0.031-0.082l-0.08-1.123
			c-0.666,1.031-1.455,1.826-2.365,2.385c-0.912,0.559-2.023,0.838-3.336,0.838c-1.037,0-1.982-0.189-2.834-0.569
			c-0.854-0.38-1.553-0.873-2.098-1.481c-0.545-0.607-1.004-1.302-1.373-2.083c-0.371-0.781-0.635-1.56-0.795-2.335
			c-0.158-0.775-0.238-1.543-0.238-2.303c0-0.955,0.076-1.863,0.23-2.727c0.154-0.862,0.422-1.705,0.803-2.53
			c0.381-0.824,0.857-1.538,1.43-2.14c0.57-0.603,1.307-1.085,2.207-1.448s1.916-0.546,3.049-0.546c1.111,0,2.094,0.226,2.947,0.676
			c0.852,0.45,1.643,1.169,2.373,2.156l0.191-2.506h1.746v16.534c0,0.716-0.008,1.294-0.023,1.733s-0.08,1.035-0.189,1.79
			c-0.111,0.754-0.266,1.372-0.461,1.854c-0.197,0.483-0.496,1.018-0.898,1.604s-0.887,1.047-1.453,1.383
			c-0.566,0.337-1.291,0.624-2.176,0.863c-0.883,0.238-1.887,0.357-3.01,0.357H982.955z M986.973,149.129
			c0.773,0,1.473-0.128,2.096-0.383c0.625-0.255,1.143-0.591,1.549-1.009c0.408-0.417,0.752-0.908,1.033-1.473
			c0.279-0.564,0.479-1.147,0.596-1.75c0.115-0.602,0.174-1.223,0.174-1.863v-1.854c0-0.847-0.1-1.645-0.301-2.393
			c-0.201-0.749-0.512-1.44-0.93-2.075s-0.992-1.136-1.723-1.505s-1.578-0.554-2.541-0.554c-0.785,0-1.49,0.154-2.121,0.464
			c-0.629,0.31-1.146,0.719-1.549,1.229c-0.402,0.511-0.74,1.106-1.016,1.79s-0.469,1.381-0.58,2.092s-0.166,1.44-0.166,2.188
			c0,0.662,0.049,1.305,0.15,1.929c0.1,0.624,0.281,1.256,0.539,1.896c0.26,0.641,0.592,1.196,0.994,1.668
			c0.402,0.473,0.928,0.857,1.58,1.156C985.408,148.979,986.146,149.129,986.973,149.129z"/>
		<path fill="#FFFFFF" d="M1006.811,150.772v-24.216h2.049v12.515c0.465-0.531,1.08-1.229,1.842-2.091s1.951-2.208,3.564-4.036
			c1.615-1.828,2.957-3.35,4.027-4.564l1.604-1.823h2.684l-9.861,10.92l10.672,13.296h-2.588l-9.641-12.026l-2.303,2.213v9.813
			H1006.811z"/>
		<path fill="#FFFFFF" d="M1032.762,151.163c-1.578,0-2.969-0.407-4.17-1.221s-2.117-1.917-2.748-3.312
			c-0.629-1.395-0.943-2.97-0.943-4.728c0-1.323,0.182-2.553,0.547-3.687s0.887-2.115,1.564-2.945s1.52-1.48,2.525-1.953
			c1.006-0.472,2.123-0.708,3.352-0.708c1.629,0,3.043,0.41,4.24,1.229c1.195,0.818,2.094,1.92,2.691,3.303
			c0.598,1.384,0.898,2.96,0.898,4.728c0,1.78-0.309,3.364-0.922,4.753c-0.615,1.389-1.529,2.492-2.748,3.312
			C1035.832,150.754,1034.402,151.163,1032.762,151.163z M1032.904,149.552c1.27,0,2.342-0.344,3.215-1.033
			c0.875-0.688,1.51-1.598,1.906-2.726c0.398-1.129,0.596-2.425,0.596-3.89c0-2.3-0.477-4.15-1.43-5.55s-2.402-2.1-4.352-2.1
			c-1.27,0-2.354,0.351-3.248,1.05c-0.895,0.7-1.547,1.617-1.961,2.751c-0.412,1.134-0.619,2.433-0.619,3.897
			c0,2.224,0.506,4.047,1.518,5.468C1029.539,148.842,1030.998,149.552,1032.904,149.552z"/>
		<path fill="#FFFFFF" d="M1044.594,150.772v-17.836h1.715l0.27,2.75c0.625-0.955,1.463-1.706,2.518-2.254
			c1.053-0.548,2.189-0.822,3.406-0.822c2.002,0,3.473,0.564,4.416,1.692c0.941,1.129,1.412,2.93,1.412,5.403v11.066h-1.984v-11.978
			c-0.053-1.584-0.381-2.724-0.984-3.418s-1.594-1.041-2.971-1.041c-1.578,0-2.867,0.406-3.867,1.221
			c-1,0.813-1.627,1.866-1.881,3.157c-0.043,0.51-0.064,1.041-0.064,1.595v10.464H1044.594z"/>
		<path fill="#FFFFFF" d="M1065.572,159.056l-0.238-1.807h3.686c0.814,0,1.535-0.072,2.16-0.219s1.15-0.337,1.58-0.57
			c0.428-0.233,0.793-0.559,1.096-0.977c0.301-0.417,0.537-0.832,0.707-1.244c0.168-0.413,0.299-0.947,0.389-1.604
			s0.145-1.259,0.166-1.807s0.033-1.239,0.033-2.074c0,0.119-0.012,0.092-0.033-0.082l-0.078-1.123
			c-0.668,1.031-1.457,1.826-2.367,2.385s-2.021,0.838-3.334,0.838c-1.039,0-1.984-0.189-2.836-0.569s-1.551-0.873-2.096-1.481
			c-0.547-0.607-1.004-1.302-1.375-2.083s-0.635-1.56-0.793-2.335c-0.16-0.775-0.238-1.543-0.238-2.303
			c0-0.955,0.076-1.863,0.23-2.727c0.152-0.862,0.42-1.705,0.801-2.53c0.381-0.824,0.857-1.538,1.43-2.14
			c0.572-0.603,1.309-1.085,2.207-1.448c0.9-0.363,1.918-0.546,3.051-0.546c1.111,0,2.094,0.226,2.945,0.676
			s1.645,1.169,2.375,2.156l0.189-2.506h1.748v16.534c0,0.716-0.008,1.294-0.023,1.733c-0.018,0.439-0.08,1.035-0.191,1.79
			c-0.111,0.754-0.266,1.372-0.461,1.854c-0.195,0.483-0.494,1.018-0.896,1.604s-0.887,1.047-1.453,1.383
			c-0.566,0.337-1.293,0.624-2.176,0.863c-0.885,0.238-1.889,0.357-3.01,0.357H1065.572z M1069.592,149.129
			c0.771,0,1.471-0.128,2.096-0.383s1.141-0.591,1.549-1.009c0.406-0.417,0.752-0.908,1.031-1.473
			c0.281-0.564,0.48-1.147,0.596-1.75c0.117-0.602,0.176-1.223,0.176-1.863v-1.854c0-0.847-0.102-1.645-0.303-2.393
			c-0.201-0.749-0.51-1.44-0.928-2.075c-0.42-0.635-0.994-1.136-1.725-1.505s-1.578-0.554-2.541-0.554
			c-0.783,0-1.49,0.154-2.119,0.464c-0.631,0.31-1.146,0.719-1.549,1.229c-0.402,0.511-0.742,1.106-1.018,1.79
			s-0.467,1.381-0.578,2.092s-0.168,1.44-0.168,2.188c0,0.662,0.051,1.305,0.15,1.929c0.102,0.624,0.281,1.256,0.541,1.896
			c0.26,0.641,0.59,1.196,0.992,1.668c0.402,0.473,0.93,0.857,1.58,1.156C1068.027,148.979,1068.766,149.129,1069.592,149.129z"/>
	</g>
</g>
</svg>
