<svg xmlns="http://www.w3.org/2000/svg" xmlns:xlink="http://www.w3.org/1999/xlink" version="1.1" x="0px" y="0px" width="230.448px" height="248.027px" viewBox="0 0 230.448 248.027" xml:space="preserve" class="style0"><style>.style0{enable-background:	new 0 0 230.448 248.027;}.style1{fill-rule:	evenodd;clip-rule:	evenodd;fill:	#FFFFFF;}</style><path d="M225.632 32.508c-0.16 1.149-0.365 2.294-0.473 3.4 c-0.475 5.105-1.622 10.077-2.973 15.006c-1.938 7.076-4.369 13.988-7.187 20.755c-1.191 2.86-2.693 5.59-4.029 8.4 c-0.461 0.966-1.123 0.949-1.96 0.564c-2.37-1.092-3.003-0.858-4.595 1.357c-1.077 1.499-2.041 3.083-3.19 4.5 c-0.377 0.473-1.176 0.608-1.712 0.865c1.229 1.6 2.6 3.4 4 5.227c1.262 1.6 2.7 3 3.9 4.7 c0.656 0.9 1.1 2.1 1.3 3.206c0.211 1.359-1.316 2.248-2.963 2.006c-3.805-0.556-7.221-2.312-10.822-3.494 c-3.853-1.265-7.082-3.653-10.733-5.241c-1.4-0.609-4.986 0.365-6.07 1.771c-1.477 1.917-1.61 3.8 0.3 5.9 c0.963-1.734 1.96-3.405 2.834-5.137c0.943-1.87 1.448-2.226 3.752-1.206c2.59 1.1 5.1 2.4 7.7 3.6 c1.246 0.6 1.5 1.3 0.8 2.522c-1.269 2.353-2.57 4.688-3.872 7.022c-0.86 1.542-1.746 3.069-2.445 4.3 c1.621 2.4 3.2 4.6 4.6 6.865c2.967 5.1 2.9 11.54-0.871 16.543c-2.326 3.05-5.421 4.654-9.113 5.1 c-2.917 0.331-5.869 0.483-8.805 0.477c-3.26-0.007-6.521-0.44-9.776-0.396c-2.572 0.036-5.274 0.127-7.399 1.9 c-0.734 0.616-1.179 1.595-1.676 2.454c-0.071 0.1 0.3 0.5 0.5 0.77c0.227-0.153 0.613-0.271 0.656-0.466 c0.612-2.752 2.735-3.567 5.104-3.712c2.958-0.18 5.936-0.06 8.905-0.034c1.214 0 1.6 0.7 0.9 1.8 c-2.559 4.42-5.134 8.832-7.629 13.287c-0.245 0.438-0.187 1.3 0.1 1.727c1.421 2.5 2.4 5.2 3.1 8 c1.741 6.918-3.1 13.217-9.281 13.703c-3.938 0.31-7.91 0.135-11.862 0.306c-2.521 0.109-5.05 0.351-7.545 0.7 c-1.953 0.297-3.772 3.107-3.452 5.048c0.058 0.3 0.3 0.6 0.7 1.195c0.624-1.213 1.189-2.184 1.637-3.206 c0.719-1.644 1.508-2.794 3.718-2.665c2.678 0.2 5.39-0.245 8.086-0.4c0.315-0.019 0.633-0.003 1.075-0.003 c-0.804 1.507-1.533 2.919-2.302 4.311c-2.036 3.682-4.109 7.342-6.102 11.047c-0.204 0.379-0.066 1 0.1 1.5 c1.13 3.2 2.2 6.4 0.9 9.833c-1.194 3.004-3.422 4.914-6.456 5.487c-2.166 0.409-4.517 0.289-6.71-0.063 c-1.384-0.223-2.63-1.307-3.938-2.004c-0.654-0.655-1.309-1.31-1.963-1.965c-1.399-2.067-2.613-4.211-2.628-6.808 c-0.002-0.362 0.129-0.726 0.199-1.088c0.143-0.048 0.285-0.095 0.427-0.142c0.424 0.7 1 1.4 1.2 2.2 c1.297 4 4.4 6 8.1 7.204c2.253 0.7 5.15-0.977 5.882-3.24c0.113-0.35-0.062-0.792-0.104-1.191 c-0.105 0.005-0.211 0.009-0.316 0.014c-0.387 0.634-0.754 1.28-1.162 1.899c-0.958 1.451-2.36 2.092-3.987 1.6 c-2.343-0.732-4.601-1.683-6.261-3.802c1.629-2.997 3.248-6.045 4.942-9.051c0.51-0.903 0.535-1.596 0.046-2.567 c-1.424-2.832-2.839-5.689-3.958-8.65c-1.745-4.616 0.684-8.258 4.112-10.201c2.204-1.249 4.695-1.568 7.15-1.759 c3.728-0.288 7.475-0.306 11.208-0.54c1.519-0.095 3.022-0.448 4.529-0.706c0.12-0.021 0.211-0.218 0.317-0.331 c0.516-0.121 1.031-0.237 1.543-0.368c1.688-0.43 1.688-0.432 0.905-2.089c-0.567 0.555-1.093 1.059-1.605 1.6 c-0.286 0.288-0.55 0.598-0.824 0.897c-1.461 0.108-2.922 0.214-4.383 0.324c-2.052 0.154-4.103 0.332-6.156 0.5 c-0.306 0.018-0.792-0.15-0.898-0.374c-0.13-0.273-0.041-0.747 0.119-1.044c0.729-1.347 1.529-2.653 2.278-3.99 c1.768-3.154 3.509-6.324 5.283-9.475c0.703-1.247-0.323-1.93-0.894-2.683c-2.149-2.836-4.059-5.768-4.967-9.278 c-1.021-3.95 0.04-7.344 2.408-10.514c2.216-2.965 5.54-3.739 8.812-4.474c4.805-1.079 9.714-0.4 14.576-0.491 c3.071-0.058 6.1 0.2 9.2 0.177c1.382-0.015 2.173-1.171 2.85-2.246c1.394-2.214 1.765-2.99 1.309-5.742 c-0.559 0.795-1.014 1.342-1.357 1.952c-0.773 1.371-1.493 2.772-2.229 4.163c-0.497 0.939-1.132 1.506-2.335 1.5 c-3.906-0.176-7.816-0.234-11.725-0.371c-1.086-0.037-1.265-0.362-0.722-1.357c0.979-1.794 2.026-3.549 3.04-5.323 c2.026-3.547 4.067-7.086 6.036-10.665c0.158-0.289-0.057-0.99-0.331-1.277c-2.869-3.002-5.395-6.241-7.24-9.984 c-1.361-2.761-0.95-5.546-0.052-8.289c0.83-2.534 2.159-4.824 4.081-6.702c2.306-2.251 5.095-3.411 8.314-3.76 c4.405-0.479 8.6 0.4 12.8 1.447c0.183 0 0.4 0 0.9 0.006c-0.502-0.237-0.736-0.363-0.981-0.461 c-0.907-0.362-1.11-0.989-0.591-1.782c1.858-2.841 2.566-6.126 3.577-9.287c0.44-1.38-0.336-2.456-1.339-3.186 c2.456-4.455 4.916-8.793 7.256-13.195c2.126-4 4.168-8.046 6.165-12.112c2.132-4.342 4.034-8.801 6.28-13.081 c2.629-5.007 5.518-9.877 8.301-14.803c0.907-1.605 1.837-3.198 2.756-4.796c0.401 0 0.8 0 1.2 0 c0.395 0.6 1 1.1 1.1 1.667c0.308 1.3 0.4 2.6 0.5 3.944c0.149 1.1 0.3 2.2 0.5 3.3 C225.632 24.6 225.6 28.6 225.6 32.508z" class="style1"/><path d="M122.317 209.711c0.654 0.7 1.3 1.3 2 2 c1.701 1.9 4 2.7 6.6 2.956c-1.145 2.117-2.228 4.152-3.34 6.172c-1.478 2.68-2.953 5.362-4.474 8 c-2.456 4.291-4.907 8.587-7.442 12.831c-1.236 2.07-2.731 2.693-4.651 2.24c-1.988-0.47-3.725-2.319-4.046-4.293 c-0.015-0.091-0.142-0.163-0.216-0.244c0-0.321 0-0.643 0-0.964c1.98-3.795 3.942-7.601 5.948-11.383 c1.433-2.701 2.931-5.367 4.391-8.054c1.534-2.823 3.052-5.655 4.598-8.472C121.776 210.2 122.1 210 122.3 209.711z" class="style1"/><path d="M225.632 20.708c-0.161-1.1-0.33-2.198-0.479-3.299 c-0.178-1.317-0.241-2.659-0.549-3.944c-0.146-0.611-0.745-1.115-1.14-1.667c0.723 0 1.4 0 2.2 0 C225.632 14.8 225.6 17.7 225.6 20.708z" class="style1"/><path d="M152.092 172.572c0.274-0.3 0.538-0.609 0.824-0.897 c0.513-0.518 1.038-1.021 1.605-1.576c0.783 1.7 0.8 1.659-0.905 2.089c-0.512 0.131-1.027 0.247-1.543 0.4 C152.072 172.6 152.1 172.6 152.1 172.572z" class="style1"/></svg>